<svg width="300" height="300" viewBox="0 0 300 300" fill="none" xmlns="http://www.w3.org/2000/svg">
<path d="M6.35095 4.63174L4.71063 2.99292L3.07031 4.63174L4.71063 6.27054L6.35095 4.63174Z" fill="white"/>
<path d="M17.934 4.63174L16.2937 2.99292L14.6534 4.63174L16.2937 6.27054L17.934 4.63174Z" fill="white"/>
<path d="M29.517 4.63174L27.8768 2.99292L26.2365 4.63174L27.8768 6.27054L29.517 4.63174Z" fill="white"/>
<path d="M41.1001 4.63174L39.4598 2.99292L37.8195 4.63174L39.4598 6.27054L41.1001 4.63174Z" fill="white"/>
<path d="M52.6832 4.63174L51.0428 2.99292L49.4025 4.63174L51.0428 6.27054L52.6832 4.63174Z" fill="white"/>
<path d="M64.2662 4.63174L62.6259 2.99292L60.9856 4.63174L62.6259 6.27054L64.2662 4.63174Z" fill="white"/>
<path d="M75.8492 4.63174L74.209 2.99292L72.5687 4.63174L74.209 6.27054L75.8492 4.63174Z" fill="white"/>
<path d="M87.4323 4.63174L85.7921 2.99292L84.1517 4.63174L85.7921 6.27054L87.4323 4.63174Z" fill="white"/>
<path d="M99.0154 4.63174L97.3751 2.99292L95.7348 4.63174L97.3751 6.27054L99.0154 4.63174Z" fill="white"/>
<path d="M110.598 4.63174L108.958 2.99292L107.318 4.63174L108.958 6.27054L110.598 4.63174Z" fill="white"/>
<path d="M122.182 4.63174L120.541 2.99292L118.901 4.63174L120.541 6.27054L122.182 4.63174Z" fill="white"/>
<path d="M133.765 4.63174L132.124 2.99292L130.484 4.63174L132.124 6.27054L133.765 4.63174Z" fill="white"/>
<path d="M145.348 4.63174L143.707 2.99292L142.067 4.63174L143.707 6.27054L145.348 4.63174Z" fill="white"/>
<path d="M156.931 4.63174L155.29 2.99292L153.65 4.63174L155.29 6.27054L156.931 4.63174Z" fill="white"/>
<path d="M168.516 4.63174L166.876 2.99292L165.235 4.63174L166.876 6.27054L168.516 4.63174Z" fill="white"/>
<path d="M180.099 4.63174L178.459 2.99292L176.818 4.63174L178.459 6.27054L180.099 4.63174Z" fill="white"/>
<path d="M191.682 4.63174L190.042 2.99292L188.402 4.63174L190.042 6.27054L191.682 4.63174Z" fill="white"/>
<path d="M203.265 4.63174L201.625 2.99292L199.985 4.63174L201.625 6.27054L203.265 4.63174Z" fill="white"/>
<path d="M214.848 4.63174L213.208 2.99292L211.568 4.63174L213.208 6.27054L214.848 4.63174Z" fill="white"/>
<path d="M226.431 4.63174L224.791 2.99292L223.151 4.63174L224.791 6.27054L226.431 4.63174Z" fill="white"/>
<path d="M238.014 4.63174L236.374 2.99292L234.734 4.63174L236.374 6.27054L238.014 4.63174Z" fill="white"/>
<path d="M249.597 4.63174L247.957 2.99292L246.317 4.63174L247.957 6.27054L249.597 4.63174Z" fill="white"/>
<path d="M261.18 4.63174L259.54 2.99292L257.9 4.63174L259.54 6.27054L261.18 4.63174Z" fill="white"/>
<path d="M272.764 4.63174L271.123 2.99292L269.483 4.63174L271.123 6.27054L272.764 4.63174Z" fill="white"/>
<path d="M284.347 4.63174L282.706 2.99292L281.066 4.63174L282.706 6.27054L284.347 4.63174Z" fill="white"/>
<path d="M295.93 4.63174L294.289 2.99292L292.649 4.63174L294.289 6.27054L295.93 4.63174Z" fill="white"/>
<path d="M6.35095 16.204L4.71063 14.5652L3.07031 16.204L4.71063 17.8428L6.35095 16.204Z" fill="white"/>
<path d="M17.934 16.204L16.2937 14.5652L14.6534 16.204L16.2937 17.8428L17.934 16.204Z" fill="white"/>
<path d="M29.517 16.204L27.8768 14.5652L26.2365 16.204L27.8768 17.8428L29.517 16.204Z" fill="white"/>
<path d="M41.1001 16.204L39.4598 14.5652L37.8195 16.204L39.4598 17.8428L41.1001 16.204Z" fill="white"/>
<path d="M52.6832 16.204L51.0428 14.5652L49.4025 16.204L51.0428 17.8428L52.6832 16.204Z" fill="white"/>
<path d="M64.2662 16.204L62.6259 14.5652L60.9856 16.204L62.6259 17.8428L64.2662 16.204Z" fill="white"/>
<path d="M75.8492 16.204L74.209 14.5652L72.5687 16.204L74.209 17.8428L75.8492 16.204Z" fill="white"/>
<path d="M87.4323 16.204L85.7921 14.5652L84.1517 16.204L85.7921 17.8428L87.4323 16.204Z" fill="white"/>
<path d="M99.0154 16.204L97.3751 14.5652L95.7348 16.204L97.3751 17.8428L99.0154 16.204Z" fill="white"/>
<path d="M110.598 16.204L108.958 14.5652L107.318 16.204L108.958 17.8428L110.598 16.204Z" fill="white"/>
<path d="M122.182 16.204L120.541 14.5652L118.901 16.204L120.541 17.8428L122.182 16.204Z" fill="white"/>
<path d="M133.765 16.204L132.124 14.5652L130.484 16.204L132.124 17.8428L133.765 16.204Z" fill="white"/>
<path d="M145.348 16.204L143.707 14.5652L142.067 16.204L143.707 17.8428L145.348 16.204Z" fill="white"/>
<path d="M156.931 16.204L155.29 14.5652L153.65 16.204L155.29 17.8428L156.931 16.204Z" fill="white"/>
<path d="M168.516 16.204L166.876 14.5652L165.235 16.204L166.876 17.8428L168.516 16.204Z" fill="white"/>
<path d="M180.099 16.204L178.459 14.5652L176.818 16.204L178.459 17.8428L180.099 16.204Z" fill="white"/>
<path d="M191.682 16.204L190.042 14.5652L188.402 16.204L190.042 17.8428L191.682 16.204Z" fill="white"/>
<path d="M203.265 16.204L201.625 14.5652L199.985 16.204L201.625 17.8428L203.265 16.204Z" fill="white"/>
<path d="M214.848 16.204L213.208 14.5652L211.568 16.204L213.208 17.8428L214.848 16.204Z" fill="white"/>
<path d="M226.431 16.204L224.791 14.5652L223.151 16.204L224.791 17.8428L226.431 16.204Z" fill="white"/>
<path d="M238.014 16.204L236.374 14.5652L234.734 16.204L236.374 17.8428L238.014 16.204Z" fill="white"/>
<path d="M249.597 16.204L247.957 14.5652L246.317 16.204L247.957 17.8428L249.597 16.204Z" fill="white"/>
<path d="M261.18 16.204L259.54 14.5652L257.9 16.204L259.54 17.8428L261.18 16.204Z" fill="white"/>
<path d="M272.764 16.204L271.123 14.5652L269.483 16.204L271.123 17.8428L272.764 16.204Z" fill="white"/>
<path d="M284.347 16.204L282.706 14.5652L281.066 16.204L282.706 17.8428L284.347 16.204Z" fill="white"/>
<path d="M295.93 16.204L294.289 14.5652L292.649 16.204L294.289 17.8428L295.93 16.204Z" fill="white"/>
<path d="M6.35095 27.7763L4.71063 26.1375L3.07031 27.7763L4.71063 29.4151L6.35095 27.7763Z" fill="white"/>
<path d="M17.934 27.7763L16.2937 26.1375L14.6534 27.7763L16.2937 29.4151L17.934 27.7763Z" fill="white"/>
<path d="M29.517 27.7763L27.8768 26.1375L26.2365 27.7763L27.8768 29.4151L29.517 27.7763Z" fill="white"/>
<path d="M41.1001 27.7763L39.4598 26.1375L37.8195 27.7763L39.4598 29.4151L41.1001 27.7763Z" fill="white"/>
<path d="M52.6832 27.7763L51.0428 26.1375L49.4025 27.7763L51.0428 29.4151L52.6832 27.7763Z" fill="white"/>
<path d="M64.2662 27.7763L62.6259 26.1375L60.9856 27.7763L62.6259 29.4151L64.2662 27.7763Z" fill="white"/>
<path d="M75.8492 27.7763L74.209 26.1375L72.5687 27.7763L74.209 29.4151L75.8492 27.7763Z" fill="white"/>
<path d="M87.4323 27.7763L85.7921 26.1375L84.1517 27.7763L85.7921 29.4151L87.4323 27.7763Z" fill="white"/>
<path d="M99.0154 27.7763L97.3751 26.1375L95.7348 27.7763L97.3751 29.4151L99.0154 27.7763Z" fill="white"/>
<path d="M110.598 27.7763L108.958 26.1375L107.318 27.7763L108.958 29.4151L110.598 27.7763Z" fill="white"/>
<path d="M122.182 27.7763L120.541 26.1375L118.901 27.7763L120.541 29.4151L122.182 27.7763Z" fill="white"/>
<path d="M133.765 27.7763L132.124 26.1375L130.484 27.7763L132.124 29.4151L133.765 27.7763Z" fill="white"/>
<path d="M145.348 27.7763L143.707 26.1375L142.067 27.7763L143.707 29.4151L145.348 27.7763Z" fill="white"/>
<path d="M156.931 27.7763L155.29 26.1375L153.65 27.7763L155.29 29.4151L156.931 27.7763Z" fill="white"/>
<path d="M168.516 27.7763L166.876 26.1375L165.235 27.7763L166.876 29.4151L168.516 27.7763Z" fill="white"/>
<path d="M180.099 27.7763L178.459 26.1375L176.818 27.7763L178.459 29.4151L180.099 27.7763Z" fill="white"/>
<path d="M191.682 27.7763L190.042 26.1375L188.402 27.7763L190.042 29.4151L191.682 27.7763Z" fill="white"/>
<path d="M203.265 27.7763L201.625 26.1375L199.985 27.7763L201.625 29.4151L203.265 27.7763Z" fill="white"/>
<path d="M214.848 27.7763L213.208 26.1375L211.568 27.7763L213.208 29.4151L214.848 27.7763Z" fill="white"/>
<path d="M226.431 27.7763L224.791 26.1375L223.151 27.7763L224.791 29.4151L226.431 27.7763Z" fill="white"/>
<path d="M238.014 27.7763L236.374 26.1375L234.734 27.7763L236.374 29.4151L238.014 27.7763Z" fill="white"/>
<path d="M249.597 27.7763L247.957 26.1375L246.317 27.7763L247.957 29.4151L249.597 27.7763Z" fill="white"/>
<path d="M261.18 27.7763L259.54 26.1375L257.9 27.7763L259.54 29.4151L261.18 27.7763Z" fill="white"/>
<path d="M272.764 27.7763L271.123 26.1375L269.483 27.7763L271.123 29.4151L272.764 27.7763Z" fill="white"/>
<path d="M284.347 27.7763L282.706 26.1375L281.066 27.7763L282.706 29.4151L284.347 27.7763Z" fill="white"/>
<path d="M295.93 27.7763L294.289 26.1375L292.649 27.7763L294.289 29.4151L295.93 27.7763Z" fill="white"/>
<path d="M6.35095 39.3485L4.71063 37.7097L3.07031 39.3485L4.71063 40.9873L6.35095 39.3485Z" fill="white"/>
<path d="M17.934 39.3485L16.2937 37.7097L14.6534 39.3485L16.2937 40.9873L17.934 39.3485Z" fill="white"/>
<path d="M29.517 39.3485L27.8768 37.7097L26.2365 39.3485L27.8768 40.9873L29.517 39.3485Z" fill="white"/>
<path d="M41.1001 39.3485L39.4598 37.7097L37.8195 39.3485L39.4598 40.9873L41.1001 39.3485Z" fill="white"/>
<path d="M52.6832 39.3485L51.0428 37.7097L49.4025 39.3485L51.0428 40.9873L52.6832 39.3485Z" fill="white"/>
<path d="M64.2662 39.3485L62.6259 37.7097L60.9856 39.3485L62.6259 40.9873L64.2662 39.3485Z" fill="white"/>
<path d="M75.8492 39.3485L74.209 37.7097L72.5687 39.3485L74.209 40.9873L75.8492 39.3485Z" fill="white"/>
<path d="M87.4323 39.3485L85.7921 37.7097L84.1517 39.3485L85.7921 40.9873L87.4323 39.3485Z" fill="white"/>
<path d="M99.0154 39.3485L97.3751 37.7097L95.7348 39.3485L97.3751 40.9873L99.0154 39.3485Z" fill="white"/>
<path d="M110.598 39.3485L108.958 37.7097L107.318 39.3485L108.958 40.9873L110.598 39.3485Z" fill="white"/>
<path d="M122.182 39.3485L120.541 37.7097L118.901 39.3485L120.541 40.9873L122.182 39.3485Z" fill="white"/>
<path d="M133.765 39.3485L132.124 37.7097L130.484 39.3485L132.124 40.9873L133.765 39.3485Z" fill="white"/>
<path d="M145.348 39.3485L143.707 37.7097L142.067 39.3485L143.707 40.9873L145.348 39.3485Z" fill="white"/>
<path d="M156.931 39.3485L155.29 37.7097L153.65 39.3485L155.29 40.9873L156.931 39.3485Z" fill="white"/>
<path d="M168.516 39.3485L166.876 37.7097L165.235 39.3485L166.876 40.9873L168.516 39.3485Z" fill="white"/>
<path d="M180.099 39.3485L178.459 37.7097L176.818 39.3485L178.459 40.9873L180.099 39.3485Z" fill="white"/>
<path d="M191.682 39.3485L190.042 37.7097L188.402 39.3485L190.042 40.9873L191.682 39.3485Z" fill="white"/>
<path d="M203.265 39.3485L201.625 37.7097L199.985 39.3485L201.625 40.9873L203.265 39.3485Z" fill="white"/>
<path d="M214.848 39.3485L213.208 37.7097L211.568 39.3485L213.208 40.9873L214.848 39.3485Z" fill="white"/>
<path d="M226.431 39.3485L224.791 37.7097L223.151 39.3485L224.791 40.9873L226.431 39.3485Z" fill="white"/>
<path d="M238.014 39.3485L236.374 37.7097L234.734 39.3485L236.374 40.9873L238.014 39.3485Z" fill="white"/>
<path d="M249.597 39.3485L247.957 37.7097L246.317 39.3485L247.957 40.9873L249.597 39.3485Z" fill="white"/>
<path d="M261.18 39.3485L259.54 37.7097L257.9 39.3485L259.54 40.9873L261.18 39.3485Z" fill="white"/>
<path d="M272.764 39.3485L271.123 37.7097L269.483 39.3485L271.123 40.9873L272.764 39.3485Z" fill="white"/>
<path d="M284.347 39.3485L282.706 37.7097L281.066 39.3485L282.706 40.9873L284.347 39.3485Z" fill="white"/>
<path d="M295.93 39.3485L294.289 37.7097L292.649 39.3485L294.289 40.9873L295.93 39.3485Z" fill="white"/>
<path d="M6.35095 50.9208L4.71063 49.282L3.07031 50.9208L4.71063 52.5596L6.35095 50.9208Z" fill="white"/>
<path d="M17.934 50.9208L16.2937 49.282L14.6534 50.9208L16.2937 52.5596L17.934 50.9208Z" fill="white"/>
<path d="M29.517 50.9208L27.8768 49.282L26.2365 50.9208L27.8768 52.5596L29.517 50.9208Z" fill="white"/>
<path d="M41.1001 50.9208L39.4598 49.282L37.8195 50.9208L39.4598 52.5596L41.1001 50.9208Z" fill="white"/>
<path d="M52.6832 50.9208L51.0428 49.282L49.4025 50.9208L51.0428 52.5596L52.6832 50.9208Z" fill="white"/>
<path d="M64.2662 50.9208L62.6259 49.282L60.9856 50.9208L62.6259 52.5596L64.2662 50.9208Z" fill="white"/>
<path d="M75.8492 50.9208L74.209 49.282L72.5687 50.9208L74.209 52.5596L75.8492 50.9208Z" fill="white"/>
<path d="M87.4323 50.9208L85.7921 49.282L84.1517 50.9208L85.7921 52.5596L87.4323 50.9208Z" fill="white"/>
<path d="M99.0154 50.9208L97.3751 49.282L95.7348 50.9208L97.3751 52.5596L99.0154 50.9208Z" fill="white"/>
<path d="M110.598 50.9208L108.958 49.282L107.318 50.9208L108.958 52.5596L110.598 50.9208Z" fill="white"/>
<path d="M122.182 50.9208L120.541 49.282L118.901 50.9208L120.541 52.5596L122.182 50.9208Z" fill="white"/>
<path d="M133.765 50.9208L132.124 49.282L130.484 50.9208L132.124 52.5596L133.765 50.9208Z" fill="white"/>
<path d="M145.348 50.9208L143.707 49.282L142.067 50.9208L143.707 52.5596L145.348 50.9208Z" fill="white"/>
<path d="M156.931 50.9208L155.29 49.282L153.65 50.9208L155.29 52.5596L156.931 50.9208Z" fill="white"/>
<path d="M168.516 50.9208L166.876 49.282L165.235 50.9208L166.876 52.5596L168.516 50.9208Z" fill="white"/>
<path d="M180.099 50.9208L178.459 49.282L176.818 50.9208L178.459 52.5596L180.099 50.9208Z" fill="white"/>
<path d="M191.682 50.9208L190.042 49.282L188.402 50.9208L190.042 52.5596L191.682 50.9208Z" fill="white"/>
<path d="M203.265 50.9208L201.625 49.282L199.985 50.9208L201.625 52.5596L203.265 50.9208Z" fill="white"/>
<path d="M214.848 50.9208L213.208 49.282L211.568 50.9208L213.208 52.5596L214.848 50.9208Z" fill="white"/>
<path d="M226.431 50.9208L224.791 49.282L223.151 50.9208L224.791 52.5596L226.431 50.9208Z" fill="white"/>
<path d="M238.014 50.9208L236.374 49.282L234.734 50.9208L236.374 52.5596L238.014 50.9208Z" fill="white"/>
<path d="M249.597 50.9208L247.957 49.282L246.317 50.9208L247.957 52.5596L249.597 50.9208Z" fill="white"/>
<path d="M261.18 50.9208L259.54 49.282L257.9 50.9208L259.54 52.5596L261.18 50.9208Z" fill="white"/>
<path d="M272.764 50.9208L271.123 49.282L269.483 50.9208L271.123 52.5596L272.764 50.9208Z" fill="white"/>
<path d="M284.347 50.9208L282.706 49.282L281.066 50.9208L282.706 52.5596L284.347 50.9208Z" fill="white"/>
<path d="M295.93 50.9208L294.289 49.282L292.649 50.9208L294.289 52.5596L295.93 50.9208Z" fill="white"/>
<path d="M6.35095 62.493L4.71063 60.8542L3.07031 62.493L4.71063 64.1319L6.35095 62.493Z" fill="white"/>
<path d="M17.934 62.493L16.2937 60.8542L14.6534 62.493L16.2937 64.1319L17.934 62.493Z" fill="white"/>
<path d="M29.517 62.493L27.8768 60.8542L26.2365 62.493L27.8768 64.1319L29.517 62.493Z" fill="white"/>
<path d="M41.1001 62.493L39.4598 60.8542L37.8195 62.493L39.4598 64.1319L41.1001 62.493Z" fill="white"/>
<path d="M52.6832 62.493L51.0428 60.8542L49.4025 62.493L51.0428 64.1319L52.6832 62.493Z" fill="white"/>
<path d="M64.2662 62.493L62.6259 60.8542L60.9856 62.493L62.6259 64.1319L64.2662 62.493Z" fill="white"/>
<path d="M75.8492 62.493L74.209 60.8542L72.5687 62.493L74.209 64.1319L75.8492 62.493Z" fill="white"/>
<path d="M87.4323 62.493L85.7921 60.8542L84.1517 62.493L85.7921 64.1319L87.4323 62.493Z" fill="white"/>
<path d="M99.0154 62.493L97.3751 60.8542L95.7348 62.493L97.3751 64.1319L99.0154 62.493Z" fill="white"/>
<path d="M110.598 62.493L108.958 60.8542L107.318 62.493L108.958 64.1319L110.598 62.493Z" fill="white"/>
<path d="M122.182 62.493L120.541 60.8542L118.901 62.493L120.541 64.1319L122.182 62.493Z" fill="white"/>
<path d="M133.765 62.493L132.124 60.8542L130.484 62.493L132.124 64.1319L133.765 62.493Z" fill="white"/>
<path d="M145.348 62.493L143.707 60.8542L142.067 62.493L143.707 64.1319L145.348 62.493Z" fill="white"/>
<path d="M156.931 62.493L155.29 60.8542L153.65 62.493L155.29 64.1319L156.931 62.493Z" fill="white"/>
<path d="M168.516 62.493L166.876 60.8542L165.235 62.493L166.876 64.1319L168.516 62.493Z" fill="white"/>
<path d="M180.099 62.493L178.459 60.8542L176.818 62.493L178.459 64.1319L180.099 62.493Z" fill="white"/>
<path d="M191.682 62.493L190.042 60.8542L188.402 62.493L190.042 64.1319L191.682 62.493Z" fill="white"/>
<path d="M203.265 62.493L201.625 60.8542L199.985 62.493L201.625 64.1319L203.265 62.493Z" fill="white"/>
<path d="M214.848 62.493L213.208 60.8542L211.568 62.493L213.208 64.1319L214.848 62.493Z" fill="white"/>
<path d="M226.431 62.493L224.791 60.8542L223.151 62.493L224.791 64.1319L226.431 62.493Z" fill="white"/>
<path d="M238.014 62.493L236.374 60.8542L234.734 62.493L236.374 64.1319L238.014 62.493Z" fill="white"/>
<path d="M249.597 62.493L247.957 60.8542L246.317 62.493L247.957 64.1319L249.597 62.493Z" fill="white"/>
<path d="M261.18 62.493L259.54 60.8542L257.9 62.493L259.54 64.1319L261.18 62.493Z" fill="white"/>
<path d="M272.764 62.493L271.123 60.8542L269.483 62.493L271.123 64.1319L272.764 62.493Z" fill="white"/>
<path d="M284.347 62.493L282.706 60.8542L281.066 62.493L282.706 64.1319L284.347 62.493Z" fill="white"/>
<path d="M295.93 62.493L294.289 60.8542L292.649 62.493L294.289 64.1319L295.93 62.493Z" fill="white"/>
<path d="M6.35095 74.0653L4.71063 72.4265L3.07031 74.0653L4.71063 75.7041L6.35095 74.0653Z" fill="white"/>
<path d="M17.934 74.0653L16.2937 72.4265L14.6534 74.0653L16.2937 75.7041L17.934 74.0653Z" fill="white"/>
<path d="M29.517 74.0653L27.8768 72.4265L26.2365 74.0653L27.8768 75.7041L29.517 74.0653Z" fill="white"/>
<path d="M41.1001 74.0653L39.4598 72.4265L37.8195 74.0653L39.4598 75.7041L41.1001 74.0653Z" fill="white"/>
<path d="M52.6832 74.0653L51.0428 72.4265L49.4025 74.0653L51.0428 75.7041L52.6832 74.0653Z" fill="white"/>
<path d="M64.2662 74.0653L62.6259 72.4265L60.9856 74.0653L62.6259 75.7041L64.2662 74.0653Z" fill="white"/>
<path d="M75.8492 74.0653L74.209 72.4265L72.5687 74.0653L74.209 75.7041L75.8492 74.0653Z" fill="white"/>
<path d="M87.4323 74.0653L85.7921 72.4265L84.1517 74.0653L85.7921 75.7041L87.4323 74.0653Z" fill="white"/>
<path d="M99.0154 74.0653L97.3751 72.4265L95.7348 74.0653L97.3751 75.7041L99.0154 74.0653Z" fill="white"/>
<path d="M110.598 74.0653L108.958 72.4265L107.318 74.0653L108.958 75.7041L110.598 74.0653Z" fill="white"/>
<path d="M122.182 74.0653L120.541 72.4265L118.901 74.0653L120.541 75.7041L122.182 74.0653Z" fill="white"/>
<path d="M133.765 74.0653L132.124 72.4265L130.484 74.0653L132.124 75.7041L133.765 74.0653Z" fill="white"/>
<path d="M145.348 74.0653L143.707 72.4265L142.067 74.0653L143.707 75.7041L145.348 74.0653Z" fill="white"/>
<path d="M156.931 74.0653L155.29 72.4265L153.65 74.0653L155.29 75.7041L156.931 74.0653Z" fill="white"/>
<path d="M168.516 74.0653L166.876 72.4265L165.235 74.0653L166.876 75.7041L168.516 74.0653Z" fill="white"/>
<path d="M180.099 74.0653L178.459 72.4265L176.818 74.0653L178.459 75.7041L180.099 74.0653Z" fill="white"/>
<path d="M191.682 74.0653L190.042 72.4265L188.402 74.0653L190.042 75.7041L191.682 74.0653Z" fill="white"/>
<path d="M203.265 74.0653L201.625 72.4265L199.985 74.0653L201.625 75.7041L203.265 74.0653Z" fill="white"/>
<path d="M214.848 74.0653L213.208 72.4265L211.568 74.0653L213.208 75.7041L214.848 74.0653Z" fill="white"/>
<path d="M226.431 74.0653L224.791 72.4265L223.151 74.0653L224.791 75.7041L226.431 74.0653Z" fill="white"/>
<path d="M238.014 74.0653L236.374 72.4265L234.734 74.0653L236.374 75.7041L238.014 74.0653Z" fill="white"/>
<path d="M249.597 74.0653L247.957 72.4265L246.317 74.0653L247.957 75.7041L249.597 74.0653Z" fill="white"/>
<path d="M261.18 74.0653L259.54 72.4265L257.9 74.0653L259.54 75.7041L261.18 74.0653Z" fill="white"/>
<path d="M272.764 74.0653L271.123 72.4265L269.483 74.0653L271.123 75.7041L272.764 74.0653Z" fill="white"/>
<path d="M284.347 74.0653L282.706 72.4265L281.066 74.0653L282.706 75.7041L284.347 74.0653Z" fill="white"/>
<path d="M295.93 74.0653L294.289 72.4265L292.649 74.0653L294.289 75.7041L295.93 74.0653Z" fill="white"/>
<path d="M6.35095 85.6376L4.71063 83.9987L3.07031 85.6376L4.71063 87.2764L6.35095 85.6376Z" fill="white"/>
<path d="M17.934 85.6376L16.2937 83.9987L14.6534 85.6376L16.2937 87.2764L17.934 85.6376Z" fill="white"/>
<path d="M29.517 85.6376L27.8768 83.9987L26.2365 85.6376L27.8768 87.2764L29.517 85.6376Z" fill="white"/>
<path d="M41.1001 85.6376L39.4598 83.9987L37.8195 85.6376L39.4598 87.2764L41.1001 85.6376Z" fill="white"/>
<path d="M52.6832 85.6376L51.0428 83.9987L49.4025 85.6376L51.0428 87.2764L52.6832 85.6376Z" fill="white"/>
<path d="M64.2662 85.6376L62.6259 83.9987L60.9856 85.6376L62.6259 87.2764L64.2662 85.6376Z" fill="white"/>
<path d="M75.8492 85.6376L74.209 83.9987L72.5687 85.6376L74.209 87.2764L75.8492 85.6376Z" fill="white"/>
<path d="M87.4323 85.6376L85.7921 83.9987L84.1517 85.6376L85.7921 87.2764L87.4323 85.6376Z" fill="white"/>
<path d="M99.0154 85.6376L97.3751 83.9987L95.7348 85.6376L97.3751 87.2764L99.0154 85.6376Z" fill="white"/>
<path d="M110.598 85.6376L108.958 83.9987L107.318 85.6376L108.958 87.2764L110.598 85.6376Z" fill="white"/>
<path d="M122.182 85.6376L120.541 83.9987L118.901 85.6376L120.541 87.2764L122.182 85.6376Z" fill="white"/>
<path d="M133.765 85.6376L132.124 83.9987L130.484 85.6376L132.124 87.2764L133.765 85.6376Z" fill="white"/>
<path d="M145.348 85.6376L143.707 83.9987L142.067 85.6376L143.707 87.2764L145.348 85.6376Z" fill="white"/>
<path d="M156.931 85.6376L155.29 83.9987L153.65 85.6376L155.29 87.2764L156.931 85.6376Z" fill="white"/>
<path d="M168.516 85.6376L166.876 83.9987L165.235 85.6376L166.876 87.2764L168.516 85.6376Z" fill="white"/>
<path d="M180.099 85.6376L178.459 83.9987L176.818 85.6376L178.459 87.2764L180.099 85.6376Z" fill="white"/>
<path d="M191.682 85.6376L190.042 83.9987L188.402 85.6376L190.042 87.2764L191.682 85.6376Z" fill="white"/>
<path d="M203.265 85.6376L201.625 83.9987L199.985 85.6376L201.625 87.2764L203.265 85.6376Z" fill="white"/>
<path d="M214.848 85.6376L213.208 83.9987L211.568 85.6376L213.208 87.2764L214.848 85.6376Z" fill="white"/>
<path d="M226.431 85.6376L224.791 83.9987L223.151 85.6376L224.791 87.2764L226.431 85.6376Z" fill="white"/>
<path d="M238.014 85.6376L236.374 83.9987L234.734 85.6376L236.374 87.2764L238.014 85.6376Z" fill="white"/>
<path d="M249.597 85.6376L247.957 83.9987L246.317 85.6376L247.957 87.2764L249.597 85.6376Z" fill="white"/>
<path d="M261.18 85.6376L259.54 83.9987L257.9 85.6376L259.54 87.2764L261.18 85.6376Z" fill="white"/>
<path d="M272.764 85.6376L271.123 83.9987L269.483 85.6376L271.123 87.2764L272.764 85.6376Z" fill="white"/>
<path d="M284.347 85.6376L282.706 83.9987L281.066 85.6376L282.706 87.2764L284.347 85.6376Z" fill="white"/>
<path d="M295.93 85.6376L294.289 83.9987L292.649 85.6376L294.289 87.2764L295.93 85.6376Z" fill="white"/>
<path d="M6.35095 97.2098L4.71063 95.571L3.07031 97.2098L4.71063 98.8486L6.35095 97.2098Z" fill="white"/>
<path d="M17.934 97.2098L16.2937 95.571L14.6534 97.2098L16.2937 98.8486L17.934 97.2098Z" fill="white"/>
<path d="M29.517 97.2098L27.8768 95.571L26.2365 97.2098L27.8768 98.8486L29.517 97.2098Z" fill="white"/>
<path d="M41.1001 97.2098L39.4598 95.571L37.8195 97.2098L39.4598 98.8486L41.1001 97.2098Z" fill="white"/>
<path d="M52.6832 97.2098L51.0428 95.571L49.4025 97.2098L51.0428 98.8486L52.6832 97.2098Z" fill="white"/>
<path d="M64.2662 97.2098L62.6259 95.571L60.9856 97.2098L62.6259 98.8486L64.2662 97.2098Z" fill="white"/>
<path d="M75.8492 97.2098L74.209 95.571L72.5687 97.2098L74.209 98.8486L75.8492 97.2098Z" fill="white"/>
<path d="M87.4323 97.2098L85.7921 95.571L84.1517 97.2098L85.7921 98.8486L87.4323 97.2098Z" fill="white"/>
<path d="M99.0154 97.2098L97.3751 95.571L95.7348 97.2098L97.3751 98.8486L99.0154 97.2098Z" fill="white"/>
<path d="M110.598 97.2098L108.958 95.571L107.318 97.2098L108.958 98.8486L110.598 97.2098Z" fill="white"/>
<path d="M122.182 97.2098L120.541 95.571L118.901 97.2098L120.541 98.8486L122.182 97.2098Z" fill="white"/>
<path d="M133.765 97.2098L132.124 95.571L130.484 97.2098L132.124 98.8486L133.765 97.2098Z" fill="white"/>
<path d="M145.348 97.2098L143.707 95.571L142.067 97.2098L143.707 98.8486L145.348 97.2098Z" fill="white"/>
<path d="M156.931 97.2098L155.29 95.571L153.65 97.2098L155.29 98.8486L156.931 97.2098Z" fill="white"/>
<path d="M168.516 97.2098L166.876 95.571L165.235 97.2098L166.876 98.8486L168.516 97.2098Z" fill="white"/>
<path d="M180.099 97.2098L178.459 95.571L176.818 97.2098L178.459 98.8486L180.099 97.2098Z" fill="white"/>
<path d="M191.682 97.2098L190.042 95.571L188.402 97.2098L190.042 98.8486L191.682 97.2098Z" fill="white"/>
<path d="M203.265 97.2098L201.625 95.571L199.985 97.2098L201.625 98.8486L203.265 97.2098Z" fill="white"/>
<path d="M214.848 97.2098L213.208 95.571L211.568 97.2098L213.208 98.8486L214.848 97.2098Z" fill="white"/>
<path d="M226.431 97.2098L224.791 95.571L223.151 97.2098L224.791 98.8486L226.431 97.2098Z" fill="white"/>
<path d="M238.014 97.2098L236.374 95.571L234.734 97.2098L236.374 98.8486L238.014 97.2098Z" fill="white"/>
<path d="M249.597 97.2098L247.957 95.571L246.317 97.2098L247.957 98.8486L249.597 97.2098Z" fill="white"/>
<path d="M261.18 97.2098L259.54 95.571L257.9 97.2098L259.54 98.8486L261.18 97.2098Z" fill="white"/>
<path d="M272.764 97.2098L271.123 95.571L269.483 97.2098L271.123 98.8486L272.764 97.2098Z" fill="white"/>
<path d="M284.347 97.2098L282.706 95.571L281.066 97.2098L282.706 98.8486L284.347 97.2098Z" fill="white"/>
<path d="M295.93 97.2098L294.289 95.571L292.649 97.2098L294.289 98.8486L295.93 97.2098Z" fill="white"/>
<path d="M6.35095 108.782L4.71063 107.143L3.07031 108.782L4.71063 110.421L6.35095 108.782Z" fill="white"/>
<path d="M17.934 108.782L16.2937 107.143L14.6534 108.782L16.2937 110.421L17.934 108.782Z" fill="white"/>
<path d="M29.517 108.782L27.8768 107.143L26.2365 108.782L27.8768 110.421L29.517 108.782Z" fill="white"/>
<path d="M41.1001 108.782L39.4598 107.143L37.8195 108.782L39.4598 110.421L41.1001 108.782Z" fill="white"/>
<path d="M52.6832 108.782L51.0428 107.143L49.4025 108.782L51.0428 110.421L52.6832 108.782Z" fill="white"/>
<path d="M64.2662 108.782L62.6259 107.143L60.9856 108.782L62.6259 110.421L64.2662 108.782Z" fill="white"/>
<path d="M75.8492 108.782L74.209 107.143L72.5687 108.782L74.209 110.421L75.8492 108.782Z" fill="white"/>
<path d="M87.4323 108.782L85.7921 107.143L84.1517 108.782L85.7921 110.421L87.4323 108.782Z" fill="white"/>
<path d="M99.0154 108.782L97.3751 107.143L95.7348 108.782L97.3751 110.421L99.0154 108.782Z" fill="white"/>
<path d="M110.598 108.782L108.958 107.143L107.318 108.782L108.958 110.421L110.598 108.782Z" fill="white"/>
<path d="M122.182 108.782L120.541 107.143L118.901 108.782L120.541 110.421L122.182 108.782Z" fill="white"/>
<path d="M133.765 108.782L132.124 107.143L130.484 108.782L132.124 110.421L133.765 108.782Z" fill="white"/>
<path d="M145.348 108.782L143.707 107.143L142.067 108.782L143.707 110.421L145.348 108.782Z" fill="white"/>
<path d="M156.931 108.782L155.29 107.143L153.65 108.782L155.29 110.421L156.931 108.782Z" fill="white"/>
<path d="M168.516 108.782L166.876 107.143L165.235 108.782L166.876 110.421L168.516 108.782Z" fill="white"/>
<path d="M180.099 108.782L178.459 107.143L176.818 108.782L178.459 110.421L180.099 108.782Z" fill="white"/>
<path d="M191.682 108.782L190.042 107.143L188.402 108.782L190.042 110.421L191.682 108.782Z" fill="white"/>
<path d="M203.265 108.782L201.625 107.143L199.985 108.782L201.625 110.421L203.265 108.782Z" fill="white"/>
<path d="M214.848 108.782L213.208 107.143L211.568 108.782L213.208 110.421L214.848 108.782Z" fill="white"/>
<path d="M226.431 108.782L224.791 107.143L223.151 108.782L224.791 110.421L226.431 108.782Z" fill="white"/>
<path d="M238.014 108.782L236.374 107.143L234.734 108.782L236.374 110.421L238.014 108.782Z" fill="white"/>
<path d="M249.597 108.782L247.957 107.143L246.317 108.782L247.957 110.421L249.597 108.782Z" fill="white"/>
<path d="M261.18 108.782L259.54 107.143L257.9 108.782L259.54 110.421L261.18 108.782Z" fill="white"/>
<path d="M272.764 108.782L271.123 107.143L269.483 108.782L271.123 110.421L272.764 108.782Z" fill="white"/>
<path d="M284.347 108.782L282.706 107.143L281.066 108.782L282.706 110.421L284.347 108.782Z" fill="white"/>
<path d="M295.93 108.782L294.289 107.143L292.649 108.782L294.289 110.421L295.93 108.782Z" fill="white"/>
<path d="M6.35095 120.354L4.71063 118.716L3.07031 120.354L4.71063 121.993L6.35095 120.354Z" fill="white"/>
<path d="M17.934 120.354L16.2937 118.716L14.6534 120.354L16.2937 121.993L17.934 120.354Z" fill="white"/>
<path d="M29.517 120.354L27.8768 118.716L26.2365 120.354L27.8768 121.993L29.517 120.354Z" fill="white"/>
<path d="M41.1001 120.354L39.4598 118.716L37.8195 120.354L39.4598 121.993L41.1001 120.354Z" fill="white"/>
<path d="M52.6832 120.354L51.0428 118.716L49.4025 120.354L51.0428 121.993L52.6832 120.354Z" fill="white"/>
<path d="M64.2662 120.354L62.6259 118.716L60.9856 120.354L62.6259 121.993L64.2662 120.354Z" fill="white"/>
<path d="M75.8492 120.354L74.209 118.716L72.5687 120.354L74.209 121.993L75.8492 120.354Z" fill="white"/>
<path d="M87.4323 120.354L85.7921 118.716L84.1517 120.354L85.7921 121.993L87.4323 120.354Z" fill="white"/>
<path d="M99.0154 120.354L97.3751 118.716L95.7348 120.354L97.3751 121.993L99.0154 120.354Z" fill="white"/>
<path d="M110.598 120.354L108.958 118.716L107.318 120.354L108.958 121.993L110.598 120.354Z" fill="white"/>
<path d="M122.182 120.354L120.541 118.716L118.901 120.354L120.541 121.993L122.182 120.354Z" fill="white"/>
<path d="M133.765 120.354L132.124 118.716L130.484 120.354L132.124 121.993L133.765 120.354Z" fill="white"/>
<path d="M145.348 120.354L143.707 118.716L142.067 120.354L143.707 121.993L145.348 120.354Z" fill="white"/>
<path d="M156.931 120.354L155.29 118.716L153.65 120.354L155.29 121.993L156.931 120.354Z" fill="white"/>
<path d="M168.516 120.354L166.876 118.716L165.235 120.354L166.876 121.993L168.516 120.354Z" fill="white"/>
<path d="M180.099 120.354L178.459 118.716L176.818 120.354L178.459 121.993L180.099 120.354Z" fill="white"/>
<path d="M191.682 120.354L190.042 118.716L188.402 120.354L190.042 121.993L191.682 120.354Z" fill="white"/>
<path d="M203.265 120.354L201.625 118.716L199.985 120.354L201.625 121.993L203.265 120.354Z" fill="white"/>
<path d="M214.848 120.354L213.208 118.716L211.568 120.354L213.208 121.993L214.848 120.354Z" fill="white"/>
<path d="M226.431 120.354L224.791 118.716L223.151 120.354L224.791 121.993L226.431 120.354Z" fill="white"/>
<path d="M238.014 120.354L236.374 118.716L234.734 120.354L236.374 121.993L238.014 120.354Z" fill="white"/>
<path d="M249.597 120.354L247.957 118.716L246.317 120.354L247.957 121.993L249.597 120.354Z" fill="white"/>
<path d="M261.18 120.354L259.54 118.716L257.9 120.354L259.54 121.993L261.18 120.354Z" fill="white"/>
<path d="M272.764 120.354L271.123 118.716L269.483 120.354L271.123 121.993L272.764 120.354Z" fill="white"/>
<path d="M284.347 120.354L282.706 118.716L281.066 120.354L282.706 121.993L284.347 120.354Z" fill="white"/>
<path d="M295.93 120.354L294.289 118.716L292.649 120.354L294.289 121.993L295.93 120.354Z" fill="white"/>
<path d="M6.35095 131.927L4.71063 130.288L3.07031 131.927L4.71063 133.565L6.35095 131.927Z" fill="white"/>
<path d="M17.934 131.927L16.2937 130.288L14.6534 131.927L16.2937 133.565L17.934 131.927Z" fill="white"/>
<path d="M29.517 131.927L27.8768 130.288L26.2365 131.927L27.8768 133.565L29.517 131.927Z" fill="white"/>
<path d="M41.1001 131.927L39.4598 130.288L37.8195 131.927L39.4598 133.565L41.1001 131.927Z" fill="white"/>
<path d="M52.6832 131.927L51.0428 130.288L49.4025 131.927L51.0428 133.565L52.6832 131.927Z" fill="white"/>
<path d="M64.2662 131.927L62.6259 130.288L60.9856 131.927L62.6259 133.565L64.2662 131.927Z" fill="white"/>
<path d="M75.8492 131.927L74.209 130.288L72.5687 131.927L74.209 133.565L75.8492 131.927Z" fill="white"/>
<path d="M87.4323 131.927L85.7921 130.288L84.1517 131.927L85.7921 133.565L87.4323 131.927Z" fill="white"/>
<path d="M99.0154 131.927L97.3751 130.288L95.7348 131.927L97.3751 133.565L99.0154 131.927Z" fill="white"/>
<path d="M110.598 131.927L108.958 130.288L107.318 131.927L108.958 133.565L110.598 131.927Z" fill="white"/>
<path d="M122.182 131.927L120.541 130.288L118.901 131.927L120.541 133.565L122.182 131.927Z" fill="white"/>
<path d="M133.765 131.927L132.124 130.288L130.484 131.927L132.124 133.565L133.765 131.927Z" fill="white"/>
<path d="M145.348 131.927L143.707 130.288L142.067 131.927L143.707 133.565L145.348 131.927Z" fill="white"/>
<path d="M156.931 131.927L155.29 130.288L153.65 131.927L155.29 133.565L156.931 131.927Z" fill="white"/>
<path d="M168.516 131.927L166.876 130.288L165.235 131.927L166.876 133.565L168.516 131.927Z" fill="white"/>
<path d="M180.099 131.927L178.459 130.288L176.818 131.927L178.459 133.565L180.099 131.927Z" fill="white"/>
<path d="M191.682 131.927L190.042 130.288L188.402 131.927L190.042 133.565L191.682 131.927Z" fill="white"/>
<path d="M203.265 131.927L201.625 130.288L199.985 131.927L201.625 133.565L203.265 131.927Z" fill="white"/>
<path d="M214.848 131.927L213.208 130.288L211.568 131.927L213.208 133.565L214.848 131.927Z" fill="white"/>
<path d="M226.431 131.927L224.791 130.288L223.151 131.927L224.791 133.565L226.431 131.927Z" fill="white"/>
<path d="M238.014 131.927L236.374 130.288L234.734 131.927L236.374 133.565L238.014 131.927Z" fill="white"/>
<path d="M249.597 131.927L247.957 130.288L246.317 131.927L247.957 133.565L249.597 131.927Z" fill="white"/>
<path d="M261.18 131.927L259.54 130.288L257.9 131.927L259.54 133.565L261.18 131.927Z" fill="white"/>
<path d="M272.764 131.927L271.123 130.288L269.483 131.927L271.123 133.565L272.764 131.927Z" fill="white"/>
<path d="M284.347 131.927L282.706 130.288L281.066 131.927L282.706 133.565L284.347 131.927Z" fill="white"/>
<path d="M295.93 131.927L294.289 130.288L292.649 131.927L294.289 133.565L295.93 131.927Z" fill="white"/>
<path d="M6.35095 143.499L4.71063 141.86L3.07031 143.499L4.71063 145.138L6.35095 143.499Z" fill="white"/>
<path d="M17.934 143.499L16.2937 141.86L14.6534 143.499L16.2937 145.138L17.934 143.499Z" fill="white"/>
<path d="M29.517 143.499L27.8768 141.86L26.2365 143.499L27.8768 145.138L29.517 143.499Z" fill="white"/>
<path d="M41.1001 143.499L39.4598 141.86L37.8195 143.499L39.4598 145.138L41.1001 143.499Z" fill="white"/>
<path d="M52.6832 143.499L51.0428 141.86L49.4025 143.499L51.0428 145.138L52.6832 143.499Z" fill="white"/>
<path d="M64.2662 143.499L62.6259 141.86L60.9856 143.499L62.6259 145.138L64.2662 143.499Z" fill="white"/>
<path d="M75.8492 143.499L74.209 141.86L72.5687 143.499L74.209 145.138L75.8492 143.499Z" fill="white"/>
<path d="M87.4323 143.499L85.7921 141.86L84.1517 143.499L85.7921 145.138L87.4323 143.499Z" fill="white"/>
<path d="M99.0154 143.499L97.3751 141.86L95.7348 143.499L97.3751 145.138L99.0154 143.499Z" fill="white"/>
<path d="M110.598 143.499L108.958 141.86L107.318 143.499L108.958 145.138L110.598 143.499Z" fill="white"/>
<path d="M122.182 143.499L120.541 141.86L118.901 143.499L120.541 145.138L122.182 143.499Z" fill="white"/>
<path d="M133.765 143.499L132.124 141.86L130.484 143.499L132.124 145.138L133.765 143.499Z" fill="white"/>
<path d="M145.348 143.499L143.707 141.86L142.067 143.499L143.707 145.138L145.348 143.499Z" fill="white"/>
<path d="M156.931 143.499L155.29 141.86L153.65 143.499L155.29 145.138L156.931 143.499Z" fill="white"/>
<path d="M168.516 143.499L166.876 141.86L165.235 143.499L166.876 145.138L168.516 143.499Z" fill="white"/>
<path d="M180.099 143.499L178.459 141.86L176.818 143.499L178.459 145.138L180.099 143.499Z" fill="white"/>
<path d="M191.682 143.499L190.042 141.86L188.402 143.499L190.042 145.138L191.682 143.499Z" fill="white"/>
<path d="M203.265 143.499L201.625 141.86L199.985 143.499L201.625 145.138L203.265 143.499Z" fill="white"/>
<path d="M214.848 143.499L213.208 141.86L211.568 143.499L213.208 145.138L214.848 143.499Z" fill="white"/>
<path d="M226.431 143.499L224.791 141.86L223.151 143.499L224.791 145.138L226.431 143.499Z" fill="white"/>
<path d="M238.014 143.499L236.374 141.86L234.734 143.499L236.374 145.138L238.014 143.499Z" fill="white"/>
<path d="M249.597 143.499L247.957 141.86L246.317 143.499L247.957 145.138L249.597 143.499Z" fill="white"/>
<path d="M261.18 143.499L259.54 141.86L257.9 143.499L259.54 145.138L261.18 143.499Z" fill="white"/>
<path d="M272.764 143.499L271.123 141.86L269.483 143.499L271.123 145.138L272.764 143.499Z" fill="white"/>
<path d="M284.347 143.499L282.706 141.86L281.066 143.499L282.706 145.138L284.347 143.499Z" fill="white"/>
<path d="M295.93 143.499L294.289 141.86L292.649 143.499L294.289 145.138L295.93 143.499Z" fill="white"/>
<path d="M6.35095 155.071L4.71063 153.432L3.07031 155.071L4.71063 156.71L6.35095 155.071Z" fill="white"/>
<path d="M17.934 155.071L16.2937 153.432L14.6534 155.071L16.2937 156.71L17.934 155.071Z" fill="white"/>
<path d="M29.517 155.071L27.8768 153.432L26.2365 155.071L27.8768 156.71L29.517 155.071Z" fill="white"/>
<path d="M41.1001 155.071L39.4598 153.432L37.8195 155.071L39.4598 156.71L41.1001 155.071Z" fill="white"/>
<path d="M52.6832 155.071L51.0428 153.432L49.4025 155.071L51.0428 156.71L52.6832 155.071Z" fill="white"/>
<path d="M64.2662 155.071L62.6259 153.432L60.9856 155.071L62.6259 156.71L64.2662 155.071Z" fill="white"/>
<path d="M75.8492 155.071L74.209 153.432L72.5687 155.071L74.209 156.71L75.8492 155.071Z" fill="white"/>
<path d="M87.4323 155.071L85.7921 153.432L84.1517 155.071L85.7921 156.71L87.4323 155.071Z" fill="white"/>
<path d="M99.0154 155.071L97.3751 153.432L95.7348 155.071L97.3751 156.71L99.0154 155.071Z" fill="white"/>
<path d="M110.598 155.071L108.958 153.432L107.318 155.071L108.958 156.71L110.598 155.071Z" fill="white"/>
<path d="M122.182 155.071L120.541 153.432L118.901 155.071L120.541 156.71L122.182 155.071Z" fill="white"/>
<path d="M133.765 155.071L132.124 153.432L130.484 155.071L132.124 156.71L133.765 155.071Z" fill="white"/>
<path d="M145.348 155.071L143.707 153.432L142.067 155.071L143.707 156.71L145.348 155.071Z" fill="white"/>
<path d="M156.931 155.071L155.29 153.432L153.65 155.071L155.29 156.71L156.931 155.071Z" fill="white"/>
<path d="M168.516 155.071L166.876 153.432L165.235 155.071L166.876 156.71L168.516 155.071Z" fill="white"/>
<path d="M180.099 155.071L178.459 153.432L176.818 155.071L178.459 156.71L180.099 155.071Z" fill="white"/>
<path d="M191.682 155.071L190.042 153.432L188.402 155.071L190.042 156.71L191.682 155.071Z" fill="white"/>
<path d="M203.265 155.071L201.625 153.432L199.985 155.071L201.625 156.71L203.265 155.071Z" fill="white"/>
<path d="M214.848 155.071L213.208 153.432L211.568 155.071L213.208 156.71L214.848 155.071Z" fill="white"/>
<path d="M226.431 155.071L224.791 153.432L223.151 155.071L224.791 156.71L226.431 155.071Z" fill="white"/>
<path d="M238.014 155.071L236.374 153.432L234.734 155.071L236.374 156.71L238.014 155.071Z" fill="white"/>
<path d="M249.597 155.071L247.957 153.432L246.317 155.071L247.957 156.71L249.597 155.071Z" fill="white"/>
<path d="M261.18 155.071L259.54 153.432L257.9 155.071L259.54 156.71L261.18 155.071Z" fill="white"/>
<path d="M272.764 155.071L271.123 153.432L269.483 155.071L271.123 156.71L272.764 155.071Z" fill="white"/>
<path d="M284.347 155.071L282.706 153.432L281.066 155.071L282.706 156.71L284.347 155.071Z" fill="white"/>
<path d="M295.93 155.071L294.289 153.432L292.649 155.071L294.289 156.71L295.93 155.071Z" fill="white"/>
<path d="M6.35095 166.643L4.71063 165.005L3.07031 166.643L4.71063 168.282L6.35095 166.643Z" fill="white"/>
<path d="M17.934 166.643L16.2937 165.005L14.6534 166.643L16.2937 168.282L17.934 166.643Z" fill="white"/>
<path d="M29.517 166.643L27.8768 165.005L26.2365 166.643L27.8768 168.282L29.517 166.643Z" fill="white"/>
<path d="M41.1001 166.643L39.4598 165.005L37.8195 166.643L39.4598 168.282L41.1001 166.643Z" fill="white"/>
<path d="M52.6832 166.643L51.0428 165.005L49.4025 166.643L51.0428 168.282L52.6832 166.643Z" fill="white"/>
<path d="M64.2662 166.643L62.6259 165.005L60.9856 166.643L62.6259 168.282L64.2662 166.643Z" fill="white"/>
<path d="M75.8492 166.643L74.209 165.005L72.5687 166.643L74.209 168.282L75.8492 166.643Z" fill="white"/>
<path d="M87.4323 166.643L85.7921 165.005L84.1517 166.643L85.7921 168.282L87.4323 166.643Z" fill="white"/>
<path d="M99.0154 166.643L97.3751 165.005L95.7348 166.643L97.3751 168.282L99.0154 166.643Z" fill="white"/>
<path d="M110.598 166.643L108.958 165.005L107.318 166.643L108.958 168.282L110.598 166.643Z" fill="white"/>
<path d="M122.182 166.643L120.541 165.005L118.901 166.643L120.541 168.282L122.182 166.643Z" fill="white"/>
<path d="M133.765 166.643L132.124 165.005L130.484 166.643L132.124 168.282L133.765 166.643Z" fill="white"/>
<path d="M145.348 166.643L143.707 165.005L142.067 166.643L143.707 168.282L145.348 166.643Z" fill="white"/>
<path d="M156.931 166.643L155.29 165.005L153.65 166.643L155.29 168.282L156.931 166.643Z" fill="white"/>
<path d="M168.516 166.643L166.876 165.005L165.235 166.643L166.876 168.282L168.516 166.643Z" fill="white"/>
<path d="M180.099 166.643L178.459 165.005L176.818 166.643L178.459 168.282L180.099 166.643Z" fill="white"/>
<path d="M191.682 166.643L190.042 165.005L188.402 166.643L190.042 168.282L191.682 166.643Z" fill="white"/>
<path d="M203.265 166.643L201.625 165.005L199.985 166.643L201.625 168.282L203.265 166.643Z" fill="white"/>
<path d="M214.848 166.643L213.208 165.005L211.568 166.643L213.208 168.282L214.848 166.643Z" fill="white"/>
<path d="M226.431 166.643L224.791 165.005L223.151 166.643L224.791 168.282L226.431 166.643Z" fill="white"/>
<path d="M238.014 166.643L236.374 165.005L234.734 166.643L236.374 168.282L238.014 166.643Z" fill="white"/>
<path d="M249.597 166.643L247.957 165.005L246.317 166.643L247.957 168.282L249.597 166.643Z" fill="white"/>
<path d="M261.18 166.643L259.54 165.005L257.9 166.643L259.54 168.282L261.18 166.643Z" fill="white"/>
<path d="M272.764 166.643L271.123 165.005L269.483 166.643L271.123 168.282L272.764 166.643Z" fill="white"/>
<path d="M284.347 166.643L282.706 165.005L281.066 166.643L282.706 168.282L284.347 166.643Z" fill="white"/>
<path d="M295.93 166.643L294.289 165.005L292.649 166.643L294.289 168.282L295.93 166.643Z" fill="white"/>
<path d="M6.35095 178.216L4.71063 176.577L3.07031 178.216L4.71063 179.854L6.35095 178.216Z" fill="white"/>
<path d="M17.934 178.216L16.2937 176.577L14.6534 178.216L16.2937 179.854L17.934 178.216Z" fill="white"/>
<path d="M29.517 178.216L27.8768 176.577L26.2365 178.216L27.8768 179.854L29.517 178.216Z" fill="white"/>
<path d="M41.1001 178.216L39.4598 176.577L37.8195 178.216L39.4598 179.854L41.1001 178.216Z" fill="white"/>
<path d="M52.6832 178.216L51.0428 176.577L49.4025 178.216L51.0428 179.854L52.6832 178.216Z" fill="white"/>
<path d="M64.2662 178.216L62.6259 176.577L60.9856 178.216L62.6259 179.854L64.2662 178.216Z" fill="white"/>
<path d="M75.8492 178.216L74.209 176.577L72.5687 178.216L74.209 179.854L75.8492 178.216Z" fill="white"/>
<path d="M87.4323 178.216L85.7921 176.577L84.1517 178.216L85.7921 179.854L87.4323 178.216Z" fill="white"/>
<path d="M99.0154 178.216L97.3751 176.577L95.7348 178.216L97.3751 179.854L99.0154 178.216Z" fill="white"/>
<path d="M110.598 178.216L108.958 176.577L107.318 178.216L108.958 179.854L110.598 178.216Z" fill="white"/>
<path d="M122.182 178.216L120.541 176.577L118.901 178.216L120.541 179.854L122.182 178.216Z" fill="white"/>
<path d="M133.765 178.216L132.124 176.577L130.484 178.216L132.124 179.854L133.765 178.216Z" fill="white"/>
<path d="M145.348 178.216L143.707 176.577L142.067 178.216L143.707 179.854L145.348 178.216Z" fill="white"/>
<path d="M156.931 178.216L155.29 176.577L153.65 178.216L155.29 179.854L156.931 178.216Z" fill="white"/>
<path d="M168.516 178.216L166.876 176.577L165.235 178.216L166.876 179.854L168.516 178.216Z" fill="white"/>
<path d="M180.099 178.216L178.459 176.577L176.818 178.216L178.459 179.854L180.099 178.216Z" fill="white"/>
<path d="M191.682 178.216L190.042 176.577L188.402 178.216L190.042 179.854L191.682 178.216Z" fill="white"/>
<path d="M203.265 178.216L201.625 176.577L199.985 178.216L201.625 179.854L203.265 178.216Z" fill="white"/>
<path d="M214.848 178.216L213.208 176.577L211.568 178.216L213.208 179.854L214.848 178.216Z" fill="white"/>
<path d="M226.431 178.216L224.791 176.577L223.151 178.216L224.791 179.854L226.431 178.216Z" fill="white"/>
<path d="M238.014 178.216L236.374 176.577L234.734 178.216L236.374 179.854L238.014 178.216Z" fill="white"/>
<path d="M249.597 178.216L247.957 176.577L246.317 178.216L247.957 179.854L249.597 178.216Z" fill="white"/>
<path d="M261.18 178.216L259.54 176.577L257.9 178.216L259.54 179.854L261.18 178.216Z" fill="white"/>
<path d="M272.764 178.216L271.123 176.577L269.483 178.216L271.123 179.854L272.764 178.216Z" fill="white"/>
<path d="M284.347 178.216L282.706 176.577L281.066 178.216L282.706 179.854L284.347 178.216Z" fill="white"/>
<path d="M295.93 178.216L294.289 176.577L292.649 178.216L294.289 179.854L295.93 178.216Z" fill="white"/>
<path d="M6.35095 189.788L4.71063 188.149L3.07031 189.788L4.71063 191.427L6.35095 189.788Z" fill="white"/>
<path d="M17.934 189.788L16.2937 188.149L14.6534 189.788L16.2937 191.427L17.934 189.788Z" fill="white"/>
<path d="M29.517 189.788L27.8768 188.149L26.2365 189.788L27.8768 191.427L29.517 189.788Z" fill="white"/>
<path d="M41.1001 189.788L39.4598 188.149L37.8195 189.788L39.4598 191.427L41.1001 189.788Z" fill="white"/>
<path d="M52.6832 189.788L51.0428 188.149L49.4025 189.788L51.0428 191.427L52.6832 189.788Z" fill="white"/>
<path d="M64.2662 189.788L62.6259 188.149L60.9856 189.788L62.6259 191.427L64.2662 189.788Z" fill="white"/>
<path d="M75.8492 189.788L74.209 188.149L72.5687 189.788L74.209 191.427L75.8492 189.788Z" fill="white"/>
<path d="M87.4323 189.788L85.7921 188.149L84.1517 189.788L85.7921 191.427L87.4323 189.788Z" fill="white"/>
<path d="M99.0154 189.788L97.3751 188.149L95.7348 189.788L97.3751 191.427L99.0154 189.788Z" fill="white"/>
<path d="M110.598 189.788L108.958 188.149L107.318 189.788L108.958 191.427L110.598 189.788Z" fill="white"/>
<path d="M122.182 189.788L120.541 188.149L118.901 189.788L120.541 191.427L122.182 189.788Z" fill="white"/>
<path d="M133.765 189.788L132.124 188.149L130.484 189.788L132.124 191.427L133.765 189.788Z" fill="white"/>
<path d="M145.348 189.788L143.707 188.149L142.067 189.788L143.707 191.427L145.348 189.788Z" fill="white"/>
<path d="M156.931 189.788L155.29 188.149L153.65 189.788L155.29 191.427L156.931 189.788Z" fill="white"/>
<path d="M168.516 189.788L166.876 188.149L165.235 189.788L166.876 191.427L168.516 189.788Z" fill="white"/>
<path d="M180.099 189.788L178.459 188.149L176.818 189.788L178.459 191.427L180.099 189.788Z" fill="white"/>
<path d="M191.682 189.788L190.042 188.149L188.402 189.788L190.042 191.427L191.682 189.788Z" fill="white"/>
<path d="M203.265 189.788L201.625 188.149L199.985 189.788L201.625 191.427L203.265 189.788Z" fill="white"/>
<path d="M214.848 189.788L213.208 188.149L211.568 189.788L213.208 191.427L214.848 189.788Z" fill="white"/>
<path d="M226.431 189.788L224.791 188.149L223.151 189.788L224.791 191.427L226.431 189.788Z" fill="white"/>
<path d="M238.014 189.788L236.374 188.149L234.734 189.788L236.374 191.427L238.014 189.788Z" fill="white"/>
<path d="M249.597 189.788L247.957 188.149L246.317 189.788L247.957 191.427L249.597 189.788Z" fill="white"/>
<path d="M261.18 189.788L259.54 188.149L257.9 189.788L259.54 191.427L261.18 189.788Z" fill="white"/>
<path d="M272.764 189.788L271.123 188.149L269.483 189.788L271.123 191.427L272.764 189.788Z" fill="white"/>
<path d="M284.347 189.788L282.706 188.149L281.066 189.788L282.706 191.427L284.347 189.788Z" fill="white"/>
<path d="M295.93 189.788L294.289 188.149L292.649 189.788L294.289 191.427L295.93 189.788Z" fill="white"/>
<path d="M6.35095 201.36L4.71063 199.721L3.07031 201.36L4.71063 202.999L6.35095 201.36Z" fill="white"/>
<path d="M17.934 201.36L16.2937 199.721L14.6534 201.36L16.2937 202.999L17.934 201.36Z" fill="white"/>
<path d="M29.517 201.36L27.8768 199.721L26.2365 201.36L27.8768 202.999L29.517 201.36Z" fill="white"/>
<path d="M41.1001 201.36L39.4598 199.721L37.8195 201.36L39.4598 202.999L41.1001 201.36Z" fill="white"/>
<path d="M52.6832 201.36L51.0428 199.721L49.4025 201.36L51.0428 202.999L52.6832 201.36Z" fill="white"/>
<path d="M64.2662 201.36L62.6259 199.721L60.9856 201.36L62.6259 202.999L64.2662 201.36Z" fill="white"/>
<path d="M75.8492 201.36L74.209 199.721L72.5687 201.36L74.209 202.999L75.8492 201.36Z" fill="white"/>
<path d="M87.4323 201.36L85.7921 199.721L84.1517 201.36L85.7921 202.999L87.4323 201.36Z" fill="white"/>
<path d="M99.0154 201.36L97.3751 199.721L95.7348 201.36L97.3751 202.999L99.0154 201.36Z" fill="white"/>
<path d="M110.598 201.36L108.958 199.721L107.318 201.36L108.958 202.999L110.598 201.36Z" fill="white"/>
<path d="M122.182 201.36L120.541 199.721L118.901 201.36L120.541 202.999L122.182 201.36Z" fill="white"/>
<path d="M133.765 201.36L132.124 199.721L130.484 201.36L132.124 202.999L133.765 201.36Z" fill="white"/>
<path d="M145.348 201.36L143.707 199.721L142.067 201.36L143.707 202.999L145.348 201.36Z" fill="white"/>
<path d="M156.931 201.36L155.29 199.721L153.65 201.36L155.29 202.999L156.931 201.36Z" fill="white"/>
<path d="M168.516 201.36L166.876 199.721L165.235 201.36L166.876 202.999L168.516 201.36Z" fill="white"/>
<path d="M180.099 201.36L178.459 199.721L176.818 201.36L178.459 202.999L180.099 201.36Z" fill="white"/>
<path d="M191.682 201.36L190.042 199.721L188.402 201.36L190.042 202.999L191.682 201.36Z" fill="white"/>
<path d="M203.265 201.36L201.625 199.721L199.985 201.36L201.625 202.999L203.265 201.36Z" fill="white"/>
<path d="M214.848 201.36L213.208 199.721L211.568 201.36L213.208 202.999L214.848 201.36Z" fill="white"/>
<path d="M226.431 201.36L224.791 199.721L223.151 201.36L224.791 202.999L226.431 201.36Z" fill="white"/>
<path d="M238.014 201.36L236.374 199.721L234.734 201.36L236.374 202.999L238.014 201.36Z" fill="white"/>
<path d="M249.597 201.36L247.957 199.721L246.317 201.36L247.957 202.999L249.597 201.36Z" fill="white"/>
<path d="M261.18 201.36L259.54 199.721L257.9 201.36L259.54 202.999L261.18 201.36Z" fill="white"/>
<path d="M272.764 201.36L271.123 199.721L269.483 201.36L271.123 202.999L272.764 201.36Z" fill="white"/>
<path d="M284.347 201.36L282.706 199.721L281.066 201.36L282.706 202.999L284.347 201.36Z" fill="white"/>
<path d="M295.93 201.36L294.289 199.721L292.649 201.36L294.289 202.999L295.93 201.36Z" fill="white"/>
<path d="M6.35095 212.935L4.71063 211.296L3.07031 212.935L4.71063 214.573L6.35095 212.935Z" fill="white"/>
<path d="M17.934 212.935L16.2937 211.296L14.6534 212.935L16.2937 214.573L17.934 212.935Z" fill="white"/>
<path d="M29.517 212.935L27.8768 211.296L26.2365 212.935L27.8768 214.573L29.517 212.935Z" fill="white"/>
<path d="M41.1001 212.935L39.4598 211.296L37.8195 212.935L39.4598 214.573L41.1001 212.935Z" fill="white"/>
<path d="M52.6832 212.935L51.0428 211.296L49.4025 212.935L51.0428 214.573L52.6832 212.935Z" fill="white"/>
<path d="M64.2662 212.935L62.6259 211.296L60.9856 212.935L62.6259 214.573L64.2662 212.935Z" fill="white"/>
<path d="M75.8492 212.935L74.209 211.296L72.5687 212.935L74.209 214.573L75.8492 212.935Z" fill="white"/>
<path d="M87.4323 212.935L85.7921 211.296L84.1517 212.935L85.7921 214.573L87.4323 212.935Z" fill="white"/>
<path d="M99.0154 212.935L97.3751 211.296L95.7348 212.935L97.3751 214.573L99.0154 212.935Z" fill="white"/>
<path d="M110.598 212.935L108.958 211.296L107.318 212.935L108.958 214.573L110.598 212.935Z" fill="white"/>
<path d="M122.182 212.935L120.541 211.296L118.901 212.935L120.541 214.573L122.182 212.935Z" fill="white"/>
<path d="M133.765 212.935L132.124 211.296L130.484 212.935L132.124 214.573L133.765 212.935Z" fill="white"/>
<path d="M145.348 212.935L143.707 211.296L142.067 212.935L143.707 214.573L145.348 212.935Z" fill="white"/>
<path d="M156.931 212.935L155.29 211.296L153.65 212.935L155.29 214.573L156.931 212.935Z" fill="white"/>
<path d="M168.516 212.935L166.876 211.296L165.235 212.935L166.876 214.573L168.516 212.935Z" fill="white"/>
<path d="M180.099 212.935L178.459 211.296L176.818 212.935L178.459 214.573L180.099 212.935Z" fill="white"/>
<path d="M191.682 212.935L190.042 211.296L188.402 212.935L190.042 214.573L191.682 212.935Z" fill="white"/>
<path d="M203.265 212.935L201.625 211.296L199.985 212.935L201.625 214.573L203.265 212.935Z" fill="white"/>
<path d="M214.848 212.935L213.208 211.296L211.568 212.935L213.208 214.573L214.848 212.935Z" fill="white"/>
<path d="M226.431 212.935L224.791 211.296L223.151 212.935L224.791 214.573L226.431 212.935Z" fill="white"/>
<path d="M238.014 212.935L236.374 211.296L234.734 212.935L236.374 214.573L238.014 212.935Z" fill="white"/>
<path d="M249.597 212.935L247.957 211.296L246.317 212.935L247.957 214.573L249.597 212.935Z" fill="white"/>
<path d="M261.18 212.935L259.54 211.296L257.9 212.935L259.54 214.573L261.18 212.935Z" fill="white"/>
<path d="M272.764 212.935L271.123 211.296L269.483 212.935L271.123 214.573L272.764 212.935Z" fill="white"/>
<path d="M284.347 212.935L282.706 211.296L281.066 212.935L282.706 214.573L284.347 212.935Z" fill="white"/>
<path d="M295.93 212.935L294.289 211.296L292.649 212.935L294.289 214.573L295.93 212.935Z" fill="white"/>
<path d="M6.35095 224.507L4.71063 222.868L3.07031 224.507L4.71063 226.146L6.35095 224.507Z" fill="white"/>
<path d="M17.934 224.507L16.2937 222.868L14.6534 224.507L16.2937 226.146L17.934 224.507Z" fill="white"/>
<path d="M29.517 224.507L27.8768 222.868L26.2365 224.507L27.8768 226.146L29.517 224.507Z" fill="white"/>
<path d="M41.1001 224.507L39.4598 222.868L37.8195 224.507L39.4598 226.146L41.1001 224.507Z" fill="white"/>
<path d="M52.6832 224.507L51.0428 222.868L49.4025 224.507L51.0428 226.146L52.6832 224.507Z" fill="white"/>
<path d="M64.2662 224.507L62.6259 222.868L60.9856 224.507L62.6259 226.146L64.2662 224.507Z" fill="white"/>
<path d="M75.8492 224.507L74.209 222.868L72.5687 224.507L74.209 226.146L75.8492 224.507Z" fill="white"/>
<path d="M87.4323 224.507L85.7921 222.868L84.1517 224.507L85.7921 226.146L87.4323 224.507Z" fill="white"/>
<path d="M99.0154 224.507L97.3751 222.868L95.7348 224.507L97.3751 226.146L99.0154 224.507Z" fill="white"/>
<path d="M110.598 224.507L108.958 222.868L107.318 224.507L108.958 226.146L110.598 224.507Z" fill="white"/>
<path d="M122.182 224.507L120.541 222.868L118.901 224.507L120.541 226.146L122.182 224.507Z" fill="white"/>
<path d="M133.765 224.507L132.124 222.868L130.484 224.507L132.124 226.146L133.765 224.507Z" fill="white"/>
<path d="M145.348 224.507L143.707 222.868L142.067 224.507L143.707 226.146L145.348 224.507Z" fill="white"/>
<path d="M156.931 224.507L155.29 222.868L153.65 224.507L155.29 226.146L156.931 224.507Z" fill="white"/>
<path d="M168.516 224.507L166.876 222.868L165.235 224.507L166.876 226.146L168.516 224.507Z" fill="white"/>
<path d="M180.099 224.507L178.459 222.868L176.818 224.507L178.459 226.146L180.099 224.507Z" fill="white"/>
<path d="M191.682 224.507L190.042 222.868L188.402 224.507L190.042 226.146L191.682 224.507Z" fill="white"/>
<path d="M203.265 224.507L201.625 222.868L199.985 224.507L201.625 226.146L203.265 224.507Z" fill="white"/>
<path d="M214.848 224.507L213.208 222.868L211.568 224.507L213.208 226.146L214.848 224.507Z" fill="white"/>
<path d="M226.431 224.507L224.791 222.868L223.151 224.507L224.791 226.146L226.431 224.507Z" fill="white"/>
<path d="M238.014 224.507L236.374 222.868L234.734 224.507L236.374 226.146L238.014 224.507Z" fill="white"/>
<path d="M249.597 224.507L247.957 222.868L246.317 224.507L247.957 226.146L249.597 224.507Z" fill="white"/>
<path d="M261.18 224.507L259.54 222.868L257.9 224.507L259.54 226.146L261.18 224.507Z" fill="white"/>
<path d="M272.764 224.507L271.123 222.868L269.483 224.507L271.123 226.146L272.764 224.507Z" fill="white"/>
<path d="M284.347 224.507L282.706 222.868L281.066 224.507L282.706 226.146L284.347 224.507Z" fill="white"/>
<path d="M295.93 224.507L294.289 222.868L292.649 224.507L294.289 226.146L295.93 224.507Z" fill="white"/>
<path d="M6.35095 236.079L4.71063 234.44L3.07031 236.079L4.71063 237.718L6.35095 236.079Z" fill="white"/>
<path d="M17.934 236.079L16.2937 234.44L14.6534 236.079L16.2937 237.718L17.934 236.079Z" fill="white"/>
<path d="M29.517 236.079L27.8768 234.44L26.2365 236.079L27.8768 237.718L29.517 236.079Z" fill="white"/>
<path d="M41.1001 236.079L39.4598 234.44L37.8195 236.079L39.4598 237.718L41.1001 236.079Z" fill="white"/>
<path d="M52.6832 236.079L51.0428 234.44L49.4025 236.079L51.0428 237.718L52.6832 236.079Z" fill="white"/>
<path d="M64.2662 236.079L62.6259 234.44L60.9856 236.079L62.6259 237.718L64.2662 236.079Z" fill="white"/>
<path d="M75.8492 236.079L74.209 234.44L72.5687 236.079L74.209 237.718L75.8492 236.079Z" fill="white"/>
<path d="M87.4323 236.079L85.7921 234.44L84.1517 236.079L85.7921 237.718L87.4323 236.079Z" fill="white"/>
<path d="M99.0154 236.079L97.3751 234.44L95.7348 236.079L97.3751 237.718L99.0154 236.079Z" fill="white"/>
<path d="M110.598 236.079L108.958 234.44L107.318 236.079L108.958 237.718L110.598 236.079Z" fill="white"/>
<path d="M122.182 236.079L120.541 234.44L118.901 236.079L120.541 237.718L122.182 236.079Z" fill="white"/>
<path d="M133.765 236.079L132.124 234.44L130.484 236.079L132.124 237.718L133.765 236.079Z" fill="white"/>
<path d="M145.348 236.079L143.707 234.44L142.067 236.079L143.707 237.718L145.348 236.079Z" fill="white"/>
<path d="M156.931 236.079L155.29 234.44L153.65 236.079L155.29 237.718L156.931 236.079Z" fill="white"/>
<path d="M168.516 236.079L166.876 234.44L165.235 236.079L166.876 237.718L168.516 236.079Z" fill="white"/>
<path d="M180.099 236.079L178.459 234.44L176.818 236.079L178.459 237.718L180.099 236.079Z" fill="white"/>
<path d="M191.682 236.079L190.042 234.44L188.402 236.079L190.042 237.718L191.682 236.079Z" fill="white"/>
<path d="M203.265 236.079L201.625 234.44L199.985 236.079L201.625 237.718L203.265 236.079Z" fill="white"/>
<path d="M214.848 236.079L213.208 234.44L211.568 236.079L213.208 237.718L214.848 236.079Z" fill="white"/>
<path d="M226.431 236.079L224.791 234.44L223.151 236.079L224.791 237.718L226.431 236.079Z" fill="white"/>
<path d="M238.014 236.079L236.374 234.44L234.734 236.079L236.374 237.718L238.014 236.079Z" fill="white"/>
<path d="M249.597 236.079L247.957 234.44L246.317 236.079L247.957 237.718L249.597 236.079Z" fill="white"/>
<path d="M261.18 236.079L259.54 234.44L257.9 236.079L259.54 237.718L261.18 236.079Z" fill="white"/>
<path d="M272.764 236.079L271.123 234.44L269.483 236.079L271.123 237.718L272.764 236.079Z" fill="white"/>
<path d="M284.347 236.079L282.706 234.44L281.066 236.079L282.706 237.718L284.347 236.079Z" fill="white"/>
<path d="M295.93 236.079L294.289 234.44L292.649 236.079L294.289 237.718L295.93 236.079Z" fill="white"/>
<path d="M6.35095 247.651L4.71063 246.013L3.07031 247.651L4.71063 249.29L6.35095 247.651Z" fill="white"/>
<path d="M17.934 247.651L16.2937 246.013L14.6534 247.651L16.2937 249.29L17.934 247.651Z" fill="white"/>
<path d="M29.517 247.651L27.8768 246.013L26.2365 247.651L27.8768 249.29L29.517 247.651Z" fill="white"/>
<path d="M41.1001 247.651L39.4598 246.013L37.8195 247.651L39.4598 249.29L41.1001 247.651Z" fill="white"/>
<path d="M52.6832 247.651L51.0428 246.013L49.4025 247.651L51.0428 249.29L52.6832 247.651Z" fill="white"/>
<path d="M64.2662 247.651L62.6259 246.013L60.9856 247.651L62.6259 249.29L64.2662 247.651Z" fill="white"/>
<path d="M75.8492 247.651L74.209 246.013L72.5687 247.651L74.209 249.29L75.8492 247.651Z" fill="white"/>
<path d="M87.4323 247.651L85.7921 246.013L84.1517 247.651L85.7921 249.29L87.4323 247.651Z" fill="white"/>
<path d="M99.0154 247.651L97.3751 246.013L95.7348 247.651L97.3751 249.29L99.0154 247.651Z" fill="white"/>
<path d="M110.598 247.651L108.958 246.013L107.318 247.651L108.958 249.29L110.598 247.651Z" fill="white"/>
<path d="M122.182 247.651L120.541 246.013L118.901 247.651L120.541 249.29L122.182 247.651Z" fill="white"/>
<path d="M133.765 247.651L132.124 246.013L130.484 247.651L132.124 249.29L133.765 247.651Z" fill="white"/>
<path d="M145.348 247.651L143.707 246.013L142.067 247.651L143.707 249.29L145.348 247.651Z" fill="white"/>
<path d="M156.931 247.651L155.29 246.013L153.65 247.651L155.29 249.29L156.931 247.651Z" fill="white"/>
<path d="M168.516 247.651L166.876 246.013L165.235 247.651L166.876 249.29L168.516 247.651Z" fill="white"/>
<path d="M180.099 247.651L178.459 246.013L176.818 247.651L178.459 249.29L180.099 247.651Z" fill="white"/>
<path d="M191.682 247.651L190.042 246.013L188.402 247.651L190.042 249.29L191.682 247.651Z" fill="white"/>
<path d="M203.265 247.651L201.625 246.013L199.985 247.651L201.625 249.29L203.265 247.651Z" fill="white"/>
<path d="M214.848 247.651L213.208 246.013L211.568 247.651L213.208 249.29L214.848 247.651Z" fill="white"/>
<path d="M226.431 247.651L224.791 246.013L223.151 247.651L224.791 249.29L226.431 247.651Z" fill="white"/>
<path d="M238.014 247.651L236.374 246.013L234.734 247.651L236.374 249.29L238.014 247.651Z" fill="white"/>
<path d="M249.597 247.651L247.957 246.013L246.317 247.651L247.957 249.29L249.597 247.651Z" fill="white"/>
<path d="M261.18 247.651L259.54 246.013L257.9 247.651L259.54 249.29L261.18 247.651Z" fill="white"/>
<path d="M272.764 247.651L271.123 246.013L269.483 247.651L271.123 249.29L272.764 247.651Z" fill="white"/>
<path d="M284.347 247.651L282.706 246.013L281.066 247.651L282.706 249.29L284.347 247.651Z" fill="white"/>
<path d="M295.93 247.651L294.289 246.013L292.649 247.651L294.289 249.29L295.93 247.651Z" fill="white"/>
<path d="M6.35095 259.224L4.71063 257.585L3.07031 259.224L4.71063 260.863L6.35095 259.224Z" fill="white"/>
<path d="M17.934 259.224L16.2937 257.585L14.6534 259.224L16.2937 260.863L17.934 259.224Z" fill="white"/>
<path d="M29.517 259.224L27.8768 257.585L26.2365 259.224L27.8768 260.863L29.517 259.224Z" fill="white"/>
<path d="M41.1001 259.224L39.4598 257.585L37.8195 259.224L39.4598 260.863L41.1001 259.224Z" fill="white"/>
<path d="M52.6832 259.224L51.0428 257.585L49.4025 259.224L51.0428 260.863L52.6832 259.224Z" fill="white"/>
<path d="M64.2662 259.224L62.6259 257.585L60.9856 259.224L62.6259 260.863L64.2662 259.224Z" fill="white"/>
<path d="M75.8492 259.224L74.209 257.585L72.5687 259.224L74.209 260.863L75.8492 259.224Z" fill="white"/>
<path d="M87.4323 259.224L85.7921 257.585L84.1517 259.224L85.7921 260.863L87.4323 259.224Z" fill="white"/>
<path d="M99.0154 259.224L97.3751 257.585L95.7348 259.224L97.3751 260.863L99.0154 259.224Z" fill="white"/>
<path d="M110.598 259.224L108.958 257.585L107.318 259.224L108.958 260.863L110.598 259.224Z" fill="white"/>
<path d="M122.182 259.224L120.541 257.585L118.901 259.224L120.541 260.863L122.182 259.224Z" fill="white"/>
<path d="M133.765 259.224L132.124 257.585L130.484 259.224L132.124 260.863L133.765 259.224Z" fill="white"/>
<path d="M145.348 259.224L143.707 257.585L142.067 259.224L143.707 260.863L145.348 259.224Z" fill="white"/>
<path d="M156.931 259.224L155.29 257.585L153.65 259.224L155.29 260.863L156.931 259.224Z" fill="white"/>
<path d="M168.516 259.224L166.876 257.585L165.235 259.224L166.876 260.863L168.516 259.224Z" fill="white"/>
<path d="M180.099 259.224L178.459 257.585L176.818 259.224L178.459 260.863L180.099 259.224Z" fill="white"/>
<path d="M191.682 259.224L190.042 257.585L188.402 259.224L190.042 260.863L191.682 259.224Z" fill="white"/>
<path d="M203.265 259.224L201.625 257.585L199.985 259.224L201.625 260.863L203.265 259.224Z" fill="white"/>
<path d="M214.848 259.224L213.208 257.585L211.568 259.224L213.208 260.863L214.848 259.224Z" fill="white"/>
<path d="M226.431 259.224L224.791 257.585L223.151 259.224L224.791 260.863L226.431 259.224Z" fill="white"/>
<path d="M238.014 259.224L236.374 257.585L234.734 259.224L236.374 260.863L238.014 259.224Z" fill="white"/>
<path d="M249.597 259.224L247.957 257.585L246.317 259.224L247.957 260.863L249.597 259.224Z" fill="white"/>
<path d="M261.18 259.224L259.54 257.585L257.9 259.224L259.54 260.863L261.18 259.224Z" fill="white"/>
<path d="M272.764 259.224L271.123 257.585L269.483 259.224L271.123 260.863L272.764 259.224Z" fill="white"/>
<path d="M284.347 259.224L282.706 257.585L281.066 259.224L282.706 260.863L284.347 259.224Z" fill="white"/>
<path d="M295.93 259.224L294.289 257.585L292.649 259.224L294.289 260.863L295.93 259.224Z" fill="white"/>
<path d="M6.35095 270.796L4.71063 269.157L3.07031 270.796L4.71063 272.435L6.35095 270.796Z" fill="white"/>
<path d="M17.934 270.796L16.2937 269.157L14.6534 270.796L16.2937 272.435L17.934 270.796Z" fill="white"/>
<path d="M29.517 270.796L27.8768 269.157L26.2365 270.796L27.8768 272.435L29.517 270.796Z" fill="white"/>
<path d="M41.1001 270.796L39.4598 269.157L37.8195 270.796L39.4598 272.435L41.1001 270.796Z" fill="white"/>
<path d="M52.6832 270.796L51.0428 269.157L49.4025 270.796L51.0428 272.435L52.6832 270.796Z" fill="white"/>
<path d="M64.2662 270.796L62.6259 269.157L60.9856 270.796L62.6259 272.435L64.2662 270.796Z" fill="white"/>
<path d="M75.8492 270.796L74.209 269.157L72.5687 270.796L74.209 272.435L75.8492 270.796Z" fill="white"/>
<path d="M87.4323 270.796L85.7921 269.157L84.1517 270.796L85.7921 272.435L87.4323 270.796Z" fill="white"/>
<path d="M99.0154 270.796L97.3751 269.157L95.7348 270.796L97.3751 272.435L99.0154 270.796Z" fill="white"/>
<path d="M110.598 270.796L108.958 269.157L107.318 270.796L108.958 272.435L110.598 270.796Z" fill="white"/>
<path d="M122.182 270.796L120.541 269.157L118.901 270.796L120.541 272.435L122.182 270.796Z" fill="white"/>
<path d="M133.765 270.796L132.124 269.157L130.484 270.796L132.124 272.435L133.765 270.796Z" fill="white"/>
<path d="M145.348 270.796L143.707 269.157L142.067 270.796L143.707 272.435L145.348 270.796Z" fill="white"/>
<path d="M156.931 270.796L155.29 269.157L153.65 270.796L155.29 272.435L156.931 270.796Z" fill="white"/>
<path d="M168.516 270.796L166.876 269.157L165.235 270.796L166.876 272.435L168.516 270.796Z" fill="white"/>
<path d="M180.099 270.796L178.459 269.157L176.818 270.796L178.459 272.435L180.099 270.796Z" fill="white"/>
<path d="M191.682 270.796L190.042 269.157L188.402 270.796L190.042 272.435L191.682 270.796Z" fill="white"/>
<path d="M203.265 270.796L201.625 269.157L199.985 270.796L201.625 272.435L203.265 270.796Z" fill="white"/>
<path d="M214.848 270.796L213.208 269.157L211.568 270.796L213.208 272.435L214.848 270.796Z" fill="white"/>
<path d="M226.431 270.796L224.791 269.157L223.151 270.796L224.791 272.435L226.431 270.796Z" fill="white"/>
<path d="M238.014 270.796L236.374 269.157L234.734 270.796L236.374 272.435L238.014 270.796Z" fill="white"/>
<path d="M249.597 270.796L247.957 269.157L246.317 270.796L247.957 272.435L249.597 270.796Z" fill="white"/>
<path d="M261.18 270.796L259.54 269.157L257.9 270.796L259.54 272.435L261.18 270.796Z" fill="white"/>
<path d="M272.764 270.796L271.123 269.157L269.483 270.796L271.123 272.435L272.764 270.796Z" fill="white"/>
<path d="M284.347 270.796L282.706 269.157L281.066 270.796L282.706 272.435L284.347 270.796Z" fill="white"/>
<path d="M295.93 270.796L294.289 269.157L292.649 270.796L294.289 272.435L295.93 270.796Z" fill="white"/>
<path d="M6.35095 282.368L4.71063 280.729L3.07031 282.368L4.71063 284.007L6.35095 282.368Z" fill="white"/>
<path d="M17.934 282.368L16.2937 280.729L14.6534 282.368L16.2937 284.007L17.934 282.368Z" fill="white"/>
<path d="M29.517 282.368L27.8768 280.729L26.2365 282.368L27.8768 284.007L29.517 282.368Z" fill="white"/>
<path d="M41.1001 282.368L39.4598 280.729L37.8195 282.368L39.4598 284.007L41.1001 282.368Z" fill="white"/>
<path d="M52.6832 282.368L51.0428 280.729L49.4025 282.368L51.0428 284.007L52.6832 282.368Z" fill="white"/>
<path d="M64.2662 282.368L62.6259 280.729L60.9856 282.368L62.6259 284.007L64.2662 282.368Z" fill="white"/>
<path d="M75.8492 282.368L74.209 280.729L72.5687 282.368L74.209 284.007L75.8492 282.368Z" fill="white"/>
<path d="M87.4323 282.368L85.7921 280.729L84.1517 282.368L85.7921 284.007L87.4323 282.368Z" fill="white"/>
<path d="M99.0154 282.368L97.3751 280.729L95.7348 282.368L97.3751 284.007L99.0154 282.368Z" fill="white"/>
<path d="M110.598 282.368L108.958 280.729L107.318 282.368L108.958 284.007L110.598 282.368Z" fill="white"/>
<path d="M122.182 282.368L120.541 280.729L118.901 282.368L120.541 284.007L122.182 282.368Z" fill="white"/>
<path d="M133.765 282.368L132.124 280.729L130.484 282.368L132.124 284.007L133.765 282.368Z" fill="white"/>
<path d="M145.348 282.368L143.707 280.729L142.067 282.368L143.707 284.007L145.348 282.368Z" fill="white"/>
<path d="M156.931 282.368L155.29 280.729L153.65 282.368L155.29 284.007L156.931 282.368Z" fill="white"/>
<path d="M168.516 282.368L166.876 280.729L165.235 282.368L166.876 284.007L168.516 282.368Z" fill="white"/>
<path d="M180.099 282.368L178.459 280.729L176.818 282.368L178.459 284.007L180.099 282.368Z" fill="white"/>
<path d="M191.682 282.368L190.042 280.729L188.402 282.368L190.042 284.007L191.682 282.368Z" fill="white"/>
<path d="M203.265 282.368L201.625 280.729L199.985 282.368L201.625 284.007L203.265 282.368Z" fill="white"/>
<path d="M214.848 282.368L213.208 280.729L211.568 282.368L213.208 284.007L214.848 282.368Z" fill="white"/>
<path d="M226.431 282.368L224.791 280.729L223.151 282.368L224.791 284.007L226.431 282.368Z" fill="white"/>
<path d="M238.014 282.368L236.374 280.729L234.734 282.368L236.374 284.007L238.014 282.368Z" fill="white"/>
<path d="M249.597 282.368L247.957 280.729L246.317 282.368L247.957 284.007L249.597 282.368Z" fill="white"/>
<path d="M261.18 282.368L259.54 280.729L257.9 282.368L259.54 284.007L261.18 282.368Z" fill="white"/>
<path d="M272.764 282.368L271.123 280.729L269.483 282.368L271.123 284.007L272.764 282.368Z" fill="white"/>
<path d="M284.347 282.368L282.706 280.729L281.066 282.368L282.706 284.007L284.347 282.368Z" fill="white"/>
<path d="M295.93 282.368L294.289 280.729L292.649 282.368L294.289 284.007L295.93 282.368Z" fill="white"/>
<path d="M6.35095 293.94L4.71063 292.302L3.07031 293.94L4.71063 295.579L6.35095 293.94Z" fill="white"/>
<path d="M17.934 293.94L16.2937 292.302L14.6534 293.94L16.2937 295.579L17.934 293.94Z" fill="white"/>
<path d="M29.517 293.94L27.8768 292.302L26.2365 293.94L27.8768 295.579L29.517 293.94Z" fill="white"/>
<path d="M41.1001 293.94L39.4598 292.302L37.8195 293.94L39.4598 295.579L41.1001 293.94Z" fill="white"/>
<path d="M52.6832 293.94L51.0428 292.302L49.4025 293.94L51.0428 295.579L52.6832 293.94Z" fill="white"/>
<path d="M64.2662 293.94L62.6259 292.302L60.9856 293.94L62.6259 295.579L64.2662 293.94Z" fill="white"/>
<path d="M75.8492 293.94L74.209 292.302L72.5687 293.94L74.209 295.579L75.8492 293.94Z" fill="white"/>
<path d="M87.4323 293.94L85.7921 292.302L84.1517 293.94L85.7921 295.579L87.4323 293.94Z" fill="white"/>
<path d="M99.0154 293.94L97.3751 292.302L95.7348 293.94L97.3751 295.579L99.0154 293.94Z" fill="white"/>
<path d="M110.598 293.94L108.958 292.302L107.318 293.94L108.958 295.579L110.598 293.94Z" fill="white"/>
<path d="M122.182 293.94L120.541 292.302L118.901 293.94L120.541 295.579L122.182 293.94Z" fill="white"/>
<path d="M133.765 293.94L132.124 292.302L130.484 293.94L132.124 295.579L133.765 293.94Z" fill="white"/>
<path d="M145.348 293.94L143.707 292.302L142.067 293.94L143.707 295.579L145.348 293.94Z" fill="white"/>
<path d="M156.931 293.94L155.29 292.302L153.65 293.94L155.29 295.579L156.931 293.94Z" fill="white"/>
<path d="M168.516 293.94L166.876 292.302L165.235 293.94L166.876 295.579L168.516 293.94Z" fill="white"/>
<path d="M180.099 293.94L178.459 292.302L176.818 293.94L178.459 295.579L180.099 293.94Z" fill="white"/>
<path d="M191.682 293.94L190.042 292.302L188.402 293.94L190.042 295.579L191.682 293.94Z" fill="white"/>
<path d="M203.265 293.94L201.625 292.302L199.985 293.94L201.625 295.579L203.265 293.94Z" fill="white"/>
<path d="M214.848 293.94L213.208 292.302L211.568 293.94L213.208 295.579L214.848 293.94Z" fill="white"/>
<path d="M226.431 293.94L224.791 292.302L223.151 293.94L224.791 295.579L226.431 293.94Z" fill="white"/>
<path d="M238.014 293.94L236.374 292.302L234.734 293.94L236.374 295.579L238.014 293.94Z" fill="white"/>
<path d="M249.597 293.94L247.957 292.302L246.317 293.94L247.957 295.579L249.597 293.94Z" fill="white"/>
<path d="M261.18 293.94L259.54 292.302L257.9 293.94L259.54 295.579L261.18 293.94Z" fill="white"/>
<path d="M272.764 293.94L271.123 292.302L269.483 293.94L271.123 295.579L272.764 293.94Z" fill="white"/>
<path d="M284.347 293.94L282.706 292.302L281.066 293.94L282.706 295.579L284.347 293.94Z" fill="white"/>
<path d="M295.93 293.94L294.289 292.302L292.649 293.94L294.289 295.579L295.93 293.94Z" fill="white"/>
</svg>
