<svg width="300" height="300" viewBox="0 0 300 300" fill="none" xmlns="http://www.w3.org/2000/svg">
<path d="M6.35095 4.63198L4.71063 2.99316L3.07031 4.63198L4.71063 6.27078L6.35095 4.63198Z" fill="black"/>
<path d="M17.9339 4.63198L16.2936 2.99316L14.6533 4.63198L16.2936 6.27078L17.9339 4.63198Z" fill="black"/>
<path d="M29.5168 4.63198L27.8766 2.99316L26.2363 4.63198L27.8766 6.27078L29.5168 4.63198Z" fill="black"/>
<path d="M41.0999 4.63198L39.4596 2.99316L37.8193 4.63198L39.4596 6.27078L41.0999 4.63198Z" fill="black"/>
<path d="M52.683 4.63198L51.0426 2.99316L49.4023 4.63198L51.0426 6.27078L52.683 4.63198Z" fill="black"/>
<path d="M64.2664 4.63198L62.6261 2.99316L60.9858 4.63198L62.6261 6.27078L64.2664 4.63198Z" fill="black"/>
<path d="M75.8493 4.63198L74.2091 2.99316L72.5688 4.63198L74.2091 6.27078L75.8493 4.63198Z" fill="black"/>
<path d="M87.4324 4.63198L85.7923 2.99316L84.1519 4.63198L85.7923 6.27078L87.4324 4.63198Z" fill="black"/>
<path d="M99.0155 4.63198L97.3752 2.99316L95.7349 4.63198L97.3752 6.27078L99.0155 4.63198Z" fill="black"/>
<path d="M110.598 4.63198L108.958 2.99316L107.318 4.63198L108.958 6.27078L110.598 4.63198Z" fill="black"/>
<path d="M122.182 4.63198L120.541 2.99316L118.901 4.63198L120.541 6.27078L122.182 4.63198Z" fill="black"/>
<path d="M133.765 4.63198L132.124 2.99316L130.484 4.63198L132.124 6.27078L133.765 4.63198Z" fill="black"/>
<path d="M145.348 4.63198L143.707 2.99316L142.067 4.63198L143.707 6.27078L145.348 4.63198Z" fill="black"/>
<path d="M156.931 4.63198L155.29 2.99316L153.65 4.63198L155.29 6.27078L156.931 4.63198Z" fill="black"/>
<path d="M168.516 4.63198L166.876 2.99316L165.235 4.63198L166.876 6.27078L168.516 4.63198Z" fill="black"/>
<path d="M180.099 4.63198L178.459 2.99316L176.818 4.63198L178.459 6.27078L180.099 4.63198Z" fill="black"/>
<path d="M191.682 4.63198L190.042 2.99316L188.402 4.63198L190.042 6.27078L191.682 4.63198Z" fill="black"/>
<path d="M203.265 4.63198L201.625 2.99316L199.985 4.63198L201.625 6.27078L203.265 4.63198Z" fill="black"/>
<path d="M214.848 4.63198L213.208 2.99316L211.568 4.63198L213.208 6.27078L214.848 4.63198Z" fill="black"/>
<path d="M226.431 4.63198L224.791 2.99316L223.151 4.63198L224.791 6.27078L226.431 4.63198Z" fill="black"/>
<path d="M238.014 4.63198L236.374 2.99316L234.734 4.63198L236.374 6.27078L238.014 4.63198Z" fill="black"/>
<path d="M249.597 4.63198L247.957 2.99316L246.317 4.63198L247.957 6.27078L249.597 4.63198Z" fill="black"/>
<path d="M261.18 4.63198L259.54 2.99316L257.9 4.63198L259.54 6.27078L261.18 4.63198Z" fill="black"/>
<path d="M272.764 4.63198L271.123 2.99316L269.483 4.63198L271.123 6.27078L272.764 4.63198Z" fill="black"/>
<path d="M284.347 4.63198L282.706 2.99316L281.066 4.63198L282.706 6.27078L284.347 4.63198Z" fill="black"/>
<path d="M295.93 4.63198L294.289 2.99316L292.649 4.63198L294.289 6.27078L295.93 4.63198Z" fill="black"/>
<path d="M6.35095 16.2042L4.71063 14.5654L3.07031 16.2042L4.71063 17.843L6.35095 16.2042Z" fill="black"/>
<path d="M17.9339 16.2042L16.2936 14.5654L14.6533 16.2042L16.2936 17.843L17.9339 16.2042Z" fill="black"/>
<path d="M29.5168 16.2042L27.8766 14.5654L26.2363 16.2042L27.8766 17.843L29.5168 16.2042Z" fill="black"/>
<path d="M41.0999 16.2042L39.4596 14.5654L37.8193 16.2042L39.4596 17.843L41.0999 16.2042Z" fill="black"/>
<path d="M52.683 16.2042L51.0426 14.5654L49.4023 16.2042L51.0426 17.843L52.683 16.2042Z" fill="black"/>
<path d="M64.2664 16.2042L62.6261 14.5654L60.9858 16.2042L62.6261 17.843L64.2664 16.2042Z" fill="black"/>
<path d="M75.8493 16.2042L74.2091 14.5654L72.5688 16.2042L74.2091 17.843L75.8493 16.2042Z" fill="black"/>
<path d="M87.4324 16.2042L85.7923 14.5654L84.1519 16.2042L85.7923 17.843L87.4324 16.2042Z" fill="black"/>
<path d="M99.0155 16.2042L97.3752 14.5654L95.7349 16.2042L97.3752 17.843L99.0155 16.2042Z" fill="black"/>
<path d="M110.598 16.2042L108.958 14.5654L107.318 16.2042L108.958 17.843L110.598 16.2042Z" fill="black"/>
<path d="M122.182 16.2042L120.541 14.5654L118.901 16.2042L120.541 17.843L122.182 16.2042Z" fill="black"/>
<path d="M133.765 16.2042L132.124 14.5654L130.484 16.2042L132.124 17.843L133.765 16.2042Z" fill="black"/>
<path d="M145.348 16.2042L143.707 14.5654L142.067 16.2042L143.707 17.843L145.348 16.2042Z" fill="black"/>
<path d="M156.931 16.2042L155.29 14.5654L153.65 16.2042L155.29 17.843L156.931 16.2042Z" fill="black"/>
<path d="M168.516 16.2042L166.876 14.5654L165.235 16.2042L166.876 17.843L168.516 16.2042Z" fill="black"/>
<path d="M180.099 16.2042L178.459 14.5654L176.818 16.2042L178.459 17.843L180.099 16.2042Z" fill="black"/>
<path d="M191.682 16.2042L190.042 14.5654L188.402 16.2042L190.042 17.843L191.682 16.2042Z" fill="black"/>
<path d="M203.265 16.2042L201.625 14.5654L199.985 16.2042L201.625 17.843L203.265 16.2042Z" fill="black"/>
<path d="M214.848 16.2042L213.208 14.5654L211.568 16.2042L213.208 17.843L214.848 16.2042Z" fill="black"/>
<path d="M226.431 16.2042L224.791 14.5654L223.151 16.2042L224.791 17.843L226.431 16.2042Z" fill="black"/>
<path d="M238.014 16.2042L236.374 14.5654L234.734 16.2042L236.374 17.843L238.014 16.2042Z" fill="black"/>
<path d="M249.597 16.2042L247.957 14.5654L246.317 16.2042L247.957 17.843L249.597 16.2042Z" fill="black"/>
<path d="M261.18 16.2042L259.54 14.5654L257.9 16.2042L259.54 17.843L261.18 16.2042Z" fill="black"/>
<path d="M272.764 16.2042L271.123 14.5654L269.483 16.2042L271.123 17.843L272.764 16.2042Z" fill="black"/>
<path d="M284.347 16.2042L282.706 14.5654L281.066 16.2042L282.706 17.843L284.347 16.2042Z" fill="black"/>
<path d="M295.93 16.2042L294.289 14.5654L292.649 16.2042L294.289 17.843L295.93 16.2042Z" fill="black"/>
<path d="M6.35095 27.7765L4.71063 26.1377L3.07031 27.7765L4.71063 29.4153L6.35095 27.7765Z" fill="black"/>
<path d="M17.9339 27.7765L16.2936 26.1377L14.6533 27.7765L16.2936 29.4153L17.9339 27.7765Z" fill="black"/>
<path d="M29.5168 27.7765L27.8766 26.1377L26.2363 27.7765L27.8766 29.4153L29.5168 27.7765Z" fill="black"/>
<path d="M41.0999 27.7765L39.4596 26.1377L37.8193 27.7765L39.4596 29.4153L41.0999 27.7765Z" fill="black"/>
<path d="M52.683 27.7765L51.0426 26.1377L49.4023 27.7765L51.0426 29.4153L52.683 27.7765Z" fill="black"/>
<path d="M64.2664 27.7765L62.6261 26.1377L60.9858 27.7765L62.6261 29.4153L64.2664 27.7765Z" fill="black"/>
<path d="M75.8493 27.7765L74.2091 26.1377L72.5688 27.7765L74.2091 29.4153L75.8493 27.7765Z" fill="black"/>
<path d="M87.4324 27.7765L85.7923 26.1377L84.1519 27.7765L85.7923 29.4153L87.4324 27.7765Z" fill="black"/>
<path d="M99.0155 27.7765L97.3752 26.1377L95.7349 27.7765L97.3752 29.4153L99.0155 27.7765Z" fill="black"/>
<path d="M110.598 27.7765L108.958 26.1377L107.318 27.7765L108.958 29.4153L110.598 27.7765Z" fill="black"/>
<path d="M122.182 27.7765L120.541 26.1377L118.901 27.7765L120.541 29.4153L122.182 27.7765Z" fill="black"/>
<path d="M133.765 27.7765L132.124 26.1377L130.484 27.7765L132.124 29.4153L133.765 27.7765Z" fill="black"/>
<path d="M145.348 27.7765L143.707 26.1377L142.067 27.7765L143.707 29.4153L145.348 27.7765Z" fill="black"/>
<path d="M156.931 27.7765L155.29 26.1377L153.65 27.7765L155.29 29.4153L156.931 27.7765Z" fill="black"/>
<path d="M168.516 27.7765L166.876 26.1377L165.235 27.7765L166.876 29.4153L168.516 27.7765Z" fill="black"/>
<path d="M180.099 27.7765L178.459 26.1377L176.818 27.7765L178.459 29.4153L180.099 27.7765Z" fill="black"/>
<path d="M191.682 27.7765L190.042 26.1377L188.402 27.7765L190.042 29.4153L191.682 27.7765Z" fill="black"/>
<path d="M203.265 27.7765L201.625 26.1377L199.985 27.7765L201.625 29.4153L203.265 27.7765Z" fill="black"/>
<path d="M214.848 27.7765L213.208 26.1377L211.568 27.7765L213.208 29.4153L214.848 27.7765Z" fill="black"/>
<path d="M226.431 27.7765L224.791 26.1377L223.151 27.7765L224.791 29.4153L226.431 27.7765Z" fill="black"/>
<path d="M238.014 27.7765L236.374 26.1377L234.734 27.7765L236.374 29.4153L238.014 27.7765Z" fill="black"/>
<path d="M249.597 27.7765L247.957 26.1377L246.317 27.7765L247.957 29.4153L249.597 27.7765Z" fill="black"/>
<path d="M261.18 27.7765L259.54 26.1377L257.9 27.7765L259.54 29.4153L261.18 27.7765Z" fill="black"/>
<path d="M272.764 27.7765L271.123 26.1377L269.483 27.7765L271.123 29.4153L272.764 27.7765Z" fill="black"/>
<path d="M284.347 27.7765L282.706 26.1377L281.066 27.7765L282.706 29.4153L284.347 27.7765Z" fill="black"/>
<path d="M295.93 27.7765L294.289 26.1377L292.649 27.7765L294.289 29.4153L295.93 27.7765Z" fill="black"/>
<path d="M6.35095 39.3483L4.71063 37.7095L3.07031 39.3483L4.71063 40.9871L6.35095 39.3483Z" fill="black"/>
<path d="M17.9339 39.3483L16.2936 37.7095L14.6533 39.3483L16.2936 40.9871L17.9339 39.3483Z" fill="black"/>
<path d="M29.5168 39.3483L27.8766 37.7095L26.2363 39.3483L27.8766 40.9871L29.5168 39.3483Z" fill="black"/>
<path d="M41.0999 39.3483L39.4596 37.7095L37.8193 39.3483L39.4596 40.9871L41.0999 39.3483Z" fill="black"/>
<path d="M52.683 39.3483L51.0426 37.7095L49.4023 39.3483L51.0426 40.9871L52.683 39.3483Z" fill="black"/>
<path d="M64.2664 39.3483L62.6261 37.7095L60.9858 39.3483L62.6261 40.9871L64.2664 39.3483Z" fill="black"/>
<path d="M75.8493 39.3483L74.2091 37.7095L72.5688 39.3483L74.2091 40.9871L75.8493 39.3483Z" fill="black"/>
<path d="M87.4324 39.3483L85.7923 37.7095L84.1519 39.3483L85.7923 40.9871L87.4324 39.3483Z" fill="black"/>
<path d="M99.0155 39.3483L97.3752 37.7095L95.7349 39.3483L97.3752 40.9871L99.0155 39.3483Z" fill="black"/>
<path d="M110.598 39.3483L108.958 37.7095L107.318 39.3483L108.958 40.9871L110.598 39.3483Z" fill="black"/>
<path d="M122.182 39.3483L120.541 37.7095L118.901 39.3483L120.541 40.9871L122.182 39.3483Z" fill="black"/>
<path d="M133.765 39.3483L132.124 37.7095L130.484 39.3483L132.124 40.9871L133.765 39.3483Z" fill="black"/>
<path d="M145.348 39.3483L143.707 37.7095L142.067 39.3483L143.707 40.9871L145.348 39.3483Z" fill="black"/>
<path d="M156.931 39.3483L155.29 37.7095L153.65 39.3483L155.29 40.9871L156.931 39.3483Z" fill="black"/>
<path d="M168.516 39.3483L166.876 37.7095L165.235 39.3483L166.876 40.9871L168.516 39.3483Z" fill="black"/>
<path d="M180.099 39.3483L178.459 37.7095L176.818 39.3483L178.459 40.9871L180.099 39.3483Z" fill="black"/>
<path d="M191.682 39.3483L190.042 37.7095L188.402 39.3483L190.042 40.9871L191.682 39.3483Z" fill="black"/>
<path d="M203.265 39.3483L201.625 37.7095L199.985 39.3483L201.625 40.9871L203.265 39.3483Z" fill="black"/>
<path d="M214.848 39.3483L213.208 37.7095L211.568 39.3483L213.208 40.9871L214.848 39.3483Z" fill="black"/>
<path d="M226.431 39.3483L224.791 37.7095L223.151 39.3483L224.791 40.9871L226.431 39.3483Z" fill="black"/>
<path d="M238.014 39.3483L236.374 37.7095L234.734 39.3483L236.374 40.9871L238.014 39.3483Z" fill="black"/>
<path d="M249.597 39.3483L247.957 37.7095L246.317 39.3483L247.957 40.9871L249.597 39.3483Z" fill="black"/>
<path d="M261.18 39.3483L259.54 37.7095L257.9 39.3483L259.54 40.9871L261.18 39.3483Z" fill="black"/>
<path d="M272.764 39.3483L271.123 37.7095L269.483 39.3483L271.123 40.9871L272.764 39.3483Z" fill="black"/>
<path d="M284.347 39.3483L282.706 37.7095L281.066 39.3483L282.706 40.9871L284.347 39.3483Z" fill="black"/>
<path d="M295.93 39.3483L294.289 37.7095L292.649 39.3483L294.289 40.9871L295.93 39.3483Z" fill="black"/>
<path d="M6.35095 50.921L4.71063 49.2822L3.07031 50.921L4.71063 52.5598L6.35095 50.921Z" fill="black"/>
<path d="M17.9339 50.921L16.2936 49.2822L14.6533 50.921L16.2936 52.5598L17.9339 50.921Z" fill="black"/>
<path d="M29.5168 50.921L27.8766 49.2822L26.2363 50.921L27.8766 52.5598L29.5168 50.921Z" fill="black"/>
<path d="M41.0999 50.921L39.4596 49.2822L37.8193 50.921L39.4596 52.5598L41.0999 50.921Z" fill="black"/>
<path d="M52.683 50.921L51.0426 49.2822L49.4023 50.921L51.0426 52.5598L52.683 50.921Z" fill="black"/>
<path d="M64.2664 50.921L62.6261 49.2822L60.9858 50.921L62.6261 52.5598L64.2664 50.921Z" fill="black"/>
<path d="M75.8493 50.921L74.2091 49.2822L72.5688 50.921L74.2091 52.5598L75.8493 50.921Z" fill="black"/>
<path d="M87.4324 50.921L85.7923 49.2822L84.1519 50.921L85.7923 52.5598L87.4324 50.921Z" fill="black"/>
<path d="M99.0155 50.921L97.3752 49.2822L95.7349 50.921L97.3752 52.5598L99.0155 50.921Z" fill="black"/>
<path d="M110.598 50.921L108.958 49.2822L107.318 50.921L108.958 52.5598L110.598 50.921Z" fill="black"/>
<path d="M122.182 50.921L120.541 49.2822L118.901 50.921L120.541 52.5598L122.182 50.921Z" fill="black"/>
<path d="M133.765 50.921L132.124 49.2822L130.484 50.921L132.124 52.5598L133.765 50.921Z" fill="black"/>
<path d="M145.348 50.921L143.707 49.2822L142.067 50.921L143.707 52.5598L145.348 50.921Z" fill="black"/>
<path d="M156.931 50.921L155.29 49.2822L153.65 50.921L155.29 52.5598L156.931 50.921Z" fill="black"/>
<path d="M168.516 50.921L166.876 49.2822L165.235 50.921L166.876 52.5598L168.516 50.921Z" fill="black"/>
<path d="M180.099 50.921L178.459 49.2822L176.818 50.921L178.459 52.5598L180.099 50.921Z" fill="black"/>
<path d="M191.682 50.921L190.042 49.2822L188.402 50.921L190.042 52.5598L191.682 50.921Z" fill="black"/>
<path d="M203.265 50.921L201.625 49.2822L199.985 50.921L201.625 52.5598L203.265 50.921Z" fill="black"/>
<path d="M214.848 50.921L213.208 49.2822L211.568 50.921L213.208 52.5598L214.848 50.921Z" fill="black"/>
<path d="M226.431 50.921L224.791 49.2822L223.151 50.921L224.791 52.5598L226.431 50.921Z" fill="black"/>
<path d="M238.014 50.921L236.374 49.2822L234.734 50.921L236.374 52.5598L238.014 50.921Z" fill="black"/>
<path d="M249.597 50.921L247.957 49.2822L246.317 50.921L247.957 52.5598L249.597 50.921Z" fill="black"/>
<path d="M261.18 50.921L259.54 49.2822L257.9 50.921L259.54 52.5598L261.18 50.921Z" fill="black"/>
<path d="M272.764 50.921L271.123 49.2822L269.483 50.921L271.123 52.5598L272.764 50.921Z" fill="black"/>
<path d="M284.347 50.921L282.706 49.2822L281.066 50.921L282.706 52.5598L284.347 50.921Z" fill="black"/>
<path d="M295.93 50.921L294.289 49.2822L292.649 50.921L294.289 52.5598L295.93 50.921Z" fill="black"/>
<path d="M6.35095 62.4928L4.71063 60.854L3.07031 62.4928L4.71063 64.1317L6.35095 62.4928Z" fill="black"/>
<path d="M17.9339 62.4928L16.2936 60.854L14.6533 62.4928L16.2936 64.1317L17.9339 62.4928Z" fill="black"/>
<path d="M29.5168 62.4928L27.8766 60.854L26.2363 62.4928L27.8766 64.1317L29.5168 62.4928Z" fill="black"/>
<path d="M41.0999 62.4928L39.4596 60.854L37.8193 62.4928L39.4596 64.1317L41.0999 62.4928Z" fill="black"/>
<path d="M52.683 62.4928L51.0426 60.854L49.4023 62.4928L51.0426 64.1317L52.683 62.4928Z" fill="black"/>
<path d="M64.2664 62.4928L62.6261 60.854L60.9858 62.4928L62.6261 64.1317L64.2664 62.4928Z" fill="black"/>
<path d="M75.8493 62.4928L74.2091 60.854L72.5688 62.4928L74.2091 64.1317L75.8493 62.4928Z" fill="black"/>
<path d="M87.4324 62.4928L85.7923 60.854L84.1519 62.4928L85.7923 64.1317L87.4324 62.4928Z" fill="black"/>
<path d="M99.0155 62.4928L97.3752 60.854L95.7349 62.4928L97.3752 64.1317L99.0155 62.4928Z" fill="black"/>
<path d="M110.598 62.4928L108.958 60.854L107.318 62.4928L108.958 64.1317L110.598 62.4928Z" fill="black"/>
<path d="M122.182 62.4928L120.541 60.854L118.901 62.4928L120.541 64.1317L122.182 62.4928Z" fill="black"/>
<path d="M133.765 62.4928L132.124 60.854L130.484 62.4928L132.124 64.1317L133.765 62.4928Z" fill="black"/>
<path d="M145.348 62.4928L143.707 60.854L142.067 62.4928L143.707 64.1317L145.348 62.4928Z" fill="black"/>
<path d="M156.931 62.4928L155.29 60.854L153.65 62.4928L155.29 64.1317L156.931 62.4928Z" fill="black"/>
<path d="M168.516 62.4928L166.876 60.854L165.235 62.4928L166.876 64.1317L168.516 62.4928Z" fill="black"/>
<path d="M180.099 62.4928L178.459 60.854L176.818 62.4928L178.459 64.1317L180.099 62.4928Z" fill="black"/>
<path d="M191.682 62.4928L190.042 60.854L188.402 62.4928L190.042 64.1317L191.682 62.4928Z" fill="black"/>
<path d="M203.265 62.4928L201.625 60.854L199.985 62.4928L201.625 64.1317L203.265 62.4928Z" fill="black"/>
<path d="M214.848 62.4928L213.208 60.854L211.568 62.4928L213.208 64.1317L214.848 62.4928Z" fill="black"/>
<path d="M226.431 62.4928L224.791 60.854L223.151 62.4928L224.791 64.1317L226.431 62.4928Z" fill="black"/>
<path d="M238.014 62.4928L236.374 60.854L234.734 62.4928L236.374 64.1317L238.014 62.4928Z" fill="black"/>
<path d="M249.597 62.4928L247.957 60.854L246.317 62.4928L247.957 64.1317L249.597 62.4928Z" fill="black"/>
<path d="M261.18 62.4928L259.54 60.854L257.9 62.4928L259.54 64.1317L261.18 62.4928Z" fill="black"/>
<path d="M272.764 62.4928L271.123 60.854L269.483 62.4928L271.123 64.1317L272.764 62.4928Z" fill="black"/>
<path d="M284.347 62.4928L282.706 60.854L281.066 62.4928L282.706 64.1317L284.347 62.4928Z" fill="black"/>
<path d="M295.93 62.4928L294.289 60.854L292.649 62.4928L294.289 64.1317L295.93 62.4928Z" fill="black"/>
<path d="M6.35095 74.0651L4.71063 72.4263L3.07031 74.0651L4.71063 75.7039L6.35095 74.0651Z" fill="black"/>
<path d="M17.9339 74.0651L16.2936 72.4263L14.6533 74.0651L16.2936 75.7039L17.9339 74.0651Z" fill="black"/>
<path d="M29.5168 74.0651L27.8766 72.4263L26.2363 74.0651L27.8766 75.7039L29.5168 74.0651Z" fill="black"/>
<path d="M41.0999 74.0651L39.4596 72.4263L37.8193 74.0651L39.4596 75.7039L41.0999 74.0651Z" fill="black"/>
<path d="M52.683 74.0651L51.0426 72.4263L49.4023 74.0651L51.0426 75.7039L52.683 74.0651Z" fill="black"/>
<path d="M64.2664 74.0651L62.6261 72.4263L60.9858 74.0651L62.6261 75.7039L64.2664 74.0651Z" fill="black"/>
<path d="M75.8493 74.0651L74.2091 72.4263L72.5688 74.0651L74.2091 75.7039L75.8493 74.0651Z" fill="black"/>
<path d="M87.4324 74.0651L85.7923 72.4263L84.1519 74.0651L85.7923 75.7039L87.4324 74.0651Z" fill="black"/>
<path d="M99.0155 74.0651L97.3752 72.4263L95.7349 74.0651L97.3752 75.7039L99.0155 74.0651Z" fill="black"/>
<path d="M110.598 74.0651L108.958 72.4263L107.318 74.0651L108.958 75.7039L110.598 74.0651Z" fill="black"/>
<path d="M122.182 74.0651L120.541 72.4263L118.901 74.0651L120.541 75.7039L122.182 74.0651Z" fill="black"/>
<path d="M133.765 74.0651L132.124 72.4263L130.484 74.0651L132.124 75.7039L133.765 74.0651Z" fill="black"/>
<path d="M145.348 74.0651L143.707 72.4263L142.067 74.0651L143.707 75.7039L145.348 74.0651Z" fill="black"/>
<path d="M156.931 74.0651L155.29 72.4263L153.65 74.0651L155.29 75.7039L156.931 74.0651Z" fill="black"/>
<path d="M168.516 74.0651L166.876 72.4263L165.235 74.0651L166.876 75.7039L168.516 74.0651Z" fill="black"/>
<path d="M180.099 74.0651L178.459 72.4263L176.818 74.0651L178.459 75.7039L180.099 74.0651Z" fill="black"/>
<path d="M191.682 74.0651L190.042 72.4263L188.402 74.0651L190.042 75.7039L191.682 74.0651Z" fill="black"/>
<path d="M203.265 74.0651L201.625 72.4263L199.985 74.0651L201.625 75.7039L203.265 74.0651Z" fill="black"/>
<path d="M214.848 74.0651L213.208 72.4263L211.568 74.0651L213.208 75.7039L214.848 74.0651Z" fill="black"/>
<path d="M226.431 74.0651L224.791 72.4263L223.151 74.0651L224.791 75.7039L226.431 74.0651Z" fill="black"/>
<path d="M238.014 74.0651L236.374 72.4263L234.734 74.0651L236.374 75.7039L238.014 74.0651Z" fill="black"/>
<path d="M249.597 74.0651L247.957 72.4263L246.317 74.0651L247.957 75.7039L249.597 74.0651Z" fill="black"/>
<path d="M261.18 74.0651L259.54 72.4263L257.9 74.0651L259.54 75.7039L261.18 74.0651Z" fill="black"/>
<path d="M272.764 74.0651L271.123 72.4263L269.483 74.0651L271.123 75.7039L272.764 74.0651Z" fill="black"/>
<path d="M284.347 74.0651L282.706 72.4263L281.066 74.0651L282.706 75.7039L284.347 74.0651Z" fill="black"/>
<path d="M295.93 74.0651L294.289 72.4263L292.649 74.0651L294.289 75.7039L295.93 74.0651Z" fill="black"/>
<path d="M6.35095 85.6374L4.71063 83.9985L3.07031 85.6374L4.71063 87.2762L6.35095 85.6374Z" fill="black"/>
<path d="M17.9339 85.6374L16.2936 83.9985L14.6533 85.6374L16.2936 87.2762L17.9339 85.6374Z" fill="black"/>
<path d="M29.5168 85.6374L27.8766 83.9985L26.2363 85.6374L27.8766 87.2762L29.5168 85.6374Z" fill="black"/>
<path d="M41.0999 85.6374L39.4596 83.9985L37.8193 85.6374L39.4596 87.2762L41.0999 85.6374Z" fill="black"/>
<path d="M52.683 85.6374L51.0426 83.9985L49.4023 85.6374L51.0426 87.2762L52.683 85.6374Z" fill="black"/>
<path d="M64.2664 85.6374L62.6261 83.9985L60.9858 85.6374L62.6261 87.2762L64.2664 85.6374Z" fill="black"/>
<path d="M75.8493 85.6374L74.2091 83.9985L72.5688 85.6374L74.2091 87.2762L75.8493 85.6374Z" fill="black"/>
<path d="M87.4324 85.6374L85.7923 83.9985L84.1519 85.6374L85.7923 87.2762L87.4324 85.6374Z" fill="black"/>
<path d="M99.0155 85.6374L97.3752 83.9985L95.7349 85.6374L97.3752 87.2762L99.0155 85.6374Z" fill="black"/>
<path d="M110.598 85.6374L108.958 83.9985L107.318 85.6374L108.958 87.2762L110.598 85.6374Z" fill="black"/>
<path d="M122.182 85.6374L120.541 83.9985L118.901 85.6374L120.541 87.2762L122.182 85.6374Z" fill="black"/>
<path d="M133.765 85.6374L132.124 83.9985L130.484 85.6374L132.124 87.2762L133.765 85.6374Z" fill="black"/>
<path d="M145.348 85.6374L143.707 83.9985L142.067 85.6374L143.707 87.2762L145.348 85.6374Z" fill="black"/>
<path d="M156.931 85.6374L155.29 83.9985L153.65 85.6374L155.29 87.2762L156.931 85.6374Z" fill="black"/>
<path d="M168.516 85.6374L166.876 83.9985L165.235 85.6374L166.876 87.2762L168.516 85.6374Z" fill="black"/>
<path d="M180.099 85.6374L178.459 83.9985L176.818 85.6374L178.459 87.2762L180.099 85.6374Z" fill="black"/>
<path d="M191.682 85.6374L190.042 83.9985L188.402 85.6374L190.042 87.2762L191.682 85.6374Z" fill="black"/>
<path d="M203.265 85.6374L201.625 83.9985L199.985 85.6374L201.625 87.2762L203.265 85.6374Z" fill="black"/>
<path d="M214.848 85.6374L213.208 83.9985L211.568 85.6374L213.208 87.2762L214.848 85.6374Z" fill="black"/>
<path d="M226.431 85.6374L224.791 83.9985L223.151 85.6374L224.791 87.2762L226.431 85.6374Z" fill="black"/>
<path d="M238.014 85.6374L236.374 83.9985L234.734 85.6374L236.374 87.2762L238.014 85.6374Z" fill="black"/>
<path d="M249.597 85.6374L247.957 83.9985L246.317 85.6374L247.957 87.2762L249.597 85.6374Z" fill="black"/>
<path d="M261.18 85.6374L259.54 83.9985L257.9 85.6374L259.54 87.2762L261.18 85.6374Z" fill="black"/>
<path d="M272.764 85.6374L271.123 83.9985L269.483 85.6374L271.123 87.2762L272.764 85.6374Z" fill="black"/>
<path d="M284.347 85.6374L282.706 83.9985L281.066 85.6374L282.706 87.2762L284.347 85.6374Z" fill="black"/>
<path d="M295.93 85.6374L294.289 83.9985L292.649 85.6374L294.289 87.2762L295.93 85.6374Z" fill="black"/>
<path d="M6.35095 97.2096L4.71063 95.5708L3.07031 97.2096L4.71063 98.8484L6.35095 97.2096Z" fill="black"/>
<path d="M17.9339 97.2096L16.2936 95.5708L14.6533 97.2096L16.2936 98.8484L17.9339 97.2096Z" fill="black"/>
<path d="M29.5168 97.2096L27.8766 95.5708L26.2363 97.2096L27.8766 98.8484L29.5168 97.2096Z" fill="black"/>
<path d="M41.0999 97.2096L39.4596 95.5708L37.8193 97.2096L39.4596 98.8484L41.0999 97.2096Z" fill="black"/>
<path d="M52.683 97.2096L51.0426 95.5708L49.4023 97.2096L51.0426 98.8484L52.683 97.2096Z" fill="black"/>
<path d="M64.2664 97.2096L62.6261 95.5708L60.9858 97.2096L62.6261 98.8484L64.2664 97.2096Z" fill="black"/>
<path d="M75.8493 97.2096L74.2091 95.5708L72.5688 97.2096L74.2091 98.8484L75.8493 97.2096Z" fill="black"/>
<path d="M87.4324 97.2096L85.7923 95.5708L84.1519 97.2096L85.7923 98.8484L87.4324 97.2096Z" fill="black"/>
<path d="M99.0155 97.2096L97.3752 95.5708L95.7349 97.2096L97.3752 98.8484L99.0155 97.2096Z" fill="black"/>
<path d="M110.598 97.2096L108.958 95.5708L107.318 97.2096L108.958 98.8484L110.598 97.2096Z" fill="black"/>
<path d="M122.182 97.2096L120.541 95.5708L118.901 97.2096L120.541 98.8484L122.182 97.2096Z" fill="black"/>
<path d="M133.765 97.2096L132.124 95.5708L130.484 97.2096L132.124 98.8484L133.765 97.2096Z" fill="black"/>
<path d="M145.348 97.2096L143.707 95.5708L142.067 97.2096L143.707 98.8484L145.348 97.2096Z" fill="black"/>
<path d="M156.931 97.2096L155.29 95.5708L153.65 97.2096L155.29 98.8484L156.931 97.2096Z" fill="black"/>
<path d="M168.516 97.2096L166.876 95.5708L165.235 97.2096L166.876 98.8484L168.516 97.2096Z" fill="black"/>
<path d="M180.099 97.2096L178.459 95.5708L176.818 97.2096L178.459 98.8484L180.099 97.2096Z" fill="black"/>
<path d="M191.682 97.2096L190.042 95.5708L188.402 97.2096L190.042 98.8484L191.682 97.2096Z" fill="black"/>
<path d="M203.265 97.2096L201.625 95.5708L199.985 97.2096L201.625 98.8484L203.265 97.2096Z" fill="black"/>
<path d="M214.848 97.2096L213.208 95.5708L211.568 97.2096L213.208 98.8484L214.848 97.2096Z" fill="black"/>
<path d="M226.431 97.2096L224.791 95.5708L223.151 97.2096L224.791 98.8484L226.431 97.2096Z" fill="black"/>
<path d="M238.014 97.2096L236.374 95.5708L234.734 97.2096L236.374 98.8484L238.014 97.2096Z" fill="black"/>
<path d="M249.597 97.2096L247.957 95.5708L246.317 97.2096L247.957 98.8484L249.597 97.2096Z" fill="black"/>
<path d="M261.18 97.2096L259.54 95.5708L257.9 97.2096L259.54 98.8484L261.18 97.2096Z" fill="black"/>
<path d="M272.764 97.2096L271.123 95.5708L269.483 97.2096L271.123 98.8484L272.764 97.2096Z" fill="black"/>
<path d="M284.347 97.2096L282.706 95.5708L281.066 97.2096L282.706 98.8484L284.347 97.2096Z" fill="black"/>
<path d="M295.93 97.2096L294.289 95.5708L292.649 97.2096L294.289 98.8484L295.93 97.2096Z" fill="black"/>
<path d="M6.35095 108.782L4.71063 107.143L3.07031 108.782L4.71063 110.421L6.35095 108.782Z" fill="black"/>
<path d="M17.9339 108.782L16.2936 107.143L14.6533 108.782L16.2936 110.421L17.9339 108.782Z" fill="black"/>
<path d="M29.5168 108.782L27.8766 107.143L26.2363 108.782L27.8766 110.421L29.5168 108.782Z" fill="black"/>
<path d="M41.0999 108.782L39.4596 107.143L37.8193 108.782L39.4596 110.421L41.0999 108.782Z" fill="black"/>
<path d="M52.683 108.782L51.0426 107.143L49.4023 108.782L51.0426 110.421L52.683 108.782Z" fill="black"/>
<path d="M64.2664 108.782L62.6261 107.143L60.9858 108.782L62.6261 110.421L64.2664 108.782Z" fill="black"/>
<path d="M75.8493 108.782L74.2091 107.143L72.5688 108.782L74.2091 110.421L75.8493 108.782Z" fill="black"/>
<path d="M87.4324 108.782L85.7923 107.143L84.1519 108.782L85.7923 110.421L87.4324 108.782Z" fill="black"/>
<path d="M99.0155 108.782L97.3752 107.143L95.7349 108.782L97.3752 110.421L99.0155 108.782Z" fill="black"/>
<path d="M110.598 108.782L108.958 107.143L107.318 108.782L108.958 110.421L110.598 108.782Z" fill="black"/>
<path d="M122.182 108.782L120.541 107.143L118.901 108.782L120.541 110.421L122.182 108.782Z" fill="black"/>
<path d="M133.765 108.782L132.124 107.143L130.484 108.782L132.124 110.421L133.765 108.782Z" fill="black"/>
<path d="M145.348 108.782L143.707 107.143L142.067 108.782L143.707 110.421L145.348 108.782Z" fill="black"/>
<path d="M156.931 108.782L155.29 107.143L153.65 108.782L155.29 110.421L156.931 108.782Z" fill="black"/>
<path d="M168.516 108.782L166.876 107.143L165.235 108.782L166.876 110.421L168.516 108.782Z" fill="black"/>
<path d="M180.099 108.782L178.459 107.143L176.818 108.782L178.459 110.421L180.099 108.782Z" fill="black"/>
<path d="M191.682 108.782L190.042 107.143L188.402 108.782L190.042 110.421L191.682 108.782Z" fill="black"/>
<path d="M203.265 108.782L201.625 107.143L199.985 108.782L201.625 110.421L203.265 108.782Z" fill="black"/>
<path d="M214.848 108.782L213.208 107.143L211.568 108.782L213.208 110.421L214.848 108.782Z" fill="black"/>
<path d="M226.431 108.782L224.791 107.143L223.151 108.782L224.791 110.421L226.431 108.782Z" fill="black"/>
<path d="M238.014 108.782L236.374 107.143L234.734 108.782L236.374 110.421L238.014 108.782Z" fill="black"/>
<path d="M249.597 108.782L247.957 107.143L246.317 108.782L247.957 110.421L249.597 108.782Z" fill="black"/>
<path d="M261.18 108.782L259.54 107.143L257.9 108.782L259.54 110.421L261.18 108.782Z" fill="black"/>
<path d="M272.764 108.782L271.123 107.143L269.483 108.782L271.123 110.421L272.764 108.782Z" fill="black"/>
<path d="M284.347 108.782L282.706 107.143L281.066 108.782L282.706 110.421L284.347 108.782Z" fill="black"/>
<path d="M295.93 108.782L294.289 107.143L292.649 108.782L294.289 110.421L295.93 108.782Z" fill="black"/>
<path d="M6.35095 120.354L4.71063 118.716L3.07031 120.354L4.71063 121.993L6.35095 120.354Z" fill="black"/>
<path d="M17.9339 120.354L16.2936 118.716L14.6533 120.354L16.2936 121.993L17.9339 120.354Z" fill="black"/>
<path d="M29.5168 120.354L27.8766 118.716L26.2363 120.354L27.8766 121.993L29.5168 120.354Z" fill="black"/>
<path d="M41.0999 120.354L39.4596 118.716L37.8193 120.354L39.4596 121.993L41.0999 120.354Z" fill="black"/>
<path d="M52.683 120.354L51.0426 118.716L49.4023 120.354L51.0426 121.993L52.683 120.354Z" fill="black"/>
<path d="M64.2664 120.354L62.6261 118.716L60.9858 120.354L62.6261 121.993L64.2664 120.354Z" fill="black"/>
<path d="M75.8493 120.354L74.2091 118.716L72.5688 120.354L74.2091 121.993L75.8493 120.354Z" fill="black"/>
<path d="M87.4324 120.354L85.7923 118.716L84.1519 120.354L85.7923 121.993L87.4324 120.354Z" fill="black"/>
<path d="M99.0155 120.354L97.3752 118.716L95.7349 120.354L97.3752 121.993L99.0155 120.354Z" fill="black"/>
<path d="M110.598 120.354L108.958 118.716L107.318 120.354L108.958 121.993L110.598 120.354Z" fill="black"/>
<path d="M122.182 120.354L120.541 118.716L118.901 120.354L120.541 121.993L122.182 120.354Z" fill="black"/>
<path d="M133.765 120.354L132.124 118.716L130.484 120.354L132.124 121.993L133.765 120.354Z" fill="black"/>
<path d="M145.348 120.354L143.707 118.716L142.067 120.354L143.707 121.993L145.348 120.354Z" fill="black"/>
<path d="M156.931 120.354L155.29 118.716L153.65 120.354L155.29 121.993L156.931 120.354Z" fill="black"/>
<path d="M168.516 120.354L166.876 118.716L165.235 120.354L166.876 121.993L168.516 120.354Z" fill="black"/>
<path d="M180.099 120.354L178.459 118.716L176.818 120.354L178.459 121.993L180.099 120.354Z" fill="black"/>
<path d="M191.682 120.354L190.042 118.716L188.402 120.354L190.042 121.993L191.682 120.354Z" fill="black"/>
<path d="M203.265 120.354L201.625 118.716L199.985 120.354L201.625 121.993L203.265 120.354Z" fill="black"/>
<path d="M214.848 120.354L213.208 118.716L211.568 120.354L213.208 121.993L214.848 120.354Z" fill="black"/>
<path d="M226.431 120.354L224.791 118.716L223.151 120.354L224.791 121.993L226.431 120.354Z" fill="black"/>
<path d="M238.014 120.354L236.374 118.716L234.734 120.354L236.374 121.993L238.014 120.354Z" fill="black"/>
<path d="M249.597 120.354L247.957 118.716L246.317 120.354L247.957 121.993L249.597 120.354Z" fill="black"/>
<path d="M261.18 120.354L259.54 118.716L257.9 120.354L259.54 121.993L261.18 120.354Z" fill="black"/>
<path d="M272.764 120.354L271.123 118.716L269.483 120.354L271.123 121.993L272.764 120.354Z" fill="black"/>
<path d="M284.347 120.354L282.706 118.716L281.066 120.354L282.706 121.993L284.347 120.354Z" fill="black"/>
<path d="M295.93 120.354L294.289 118.716L292.649 120.354L294.289 121.993L295.93 120.354Z" fill="black"/>
<path d="M6.35095 131.927L4.71063 130.288L3.07031 131.927L4.71063 133.565L6.35095 131.927Z" fill="black"/>
<path d="M17.9339 131.927L16.2936 130.288L14.6533 131.927L16.2936 133.565L17.9339 131.927Z" fill="black"/>
<path d="M29.5168 131.927L27.8766 130.288L26.2363 131.927L27.8766 133.565L29.5168 131.927Z" fill="black"/>
<path d="M41.0999 131.927L39.4596 130.288L37.8193 131.927L39.4596 133.565L41.0999 131.927Z" fill="black"/>
<path d="M52.683 131.927L51.0426 130.288L49.4023 131.927L51.0426 133.565L52.683 131.927Z" fill="black"/>
<path d="M64.2664 131.927L62.6261 130.288L60.9858 131.927L62.6261 133.565L64.2664 131.927Z" fill="black"/>
<path d="M75.8493 131.927L74.2091 130.288L72.5688 131.927L74.2091 133.565L75.8493 131.927Z" fill="black"/>
<path d="M87.4324 131.927L85.7923 130.288L84.1519 131.927L85.7923 133.565L87.4324 131.927Z" fill="black"/>
<path d="M99.0155 131.927L97.3752 130.288L95.7349 131.927L97.3752 133.565L99.0155 131.927Z" fill="black"/>
<path d="M110.598 131.927L108.958 130.288L107.318 131.927L108.958 133.565L110.598 131.927Z" fill="black"/>
<path d="M122.182 131.927L120.541 130.288L118.901 131.927L120.541 133.565L122.182 131.927Z" fill="black"/>
<path d="M133.765 131.927L132.124 130.288L130.484 131.927L132.124 133.565L133.765 131.927Z" fill="black"/>
<path d="M145.348 131.927L143.707 130.288L142.067 131.927L143.707 133.565L145.348 131.927Z" fill="black"/>
<path d="M156.931 131.927L155.29 130.288L153.65 131.927L155.29 133.565L156.931 131.927Z" fill="black"/>
<path d="M168.516 131.927L166.876 130.288L165.235 131.927L166.876 133.565L168.516 131.927Z" fill="black"/>
<path d="M180.099 131.927L178.459 130.288L176.818 131.927L178.459 133.565L180.099 131.927Z" fill="black"/>
<path d="M191.682 131.927L190.042 130.288L188.402 131.927L190.042 133.565L191.682 131.927Z" fill="black"/>
<path d="M203.265 131.927L201.625 130.288L199.985 131.927L201.625 133.565L203.265 131.927Z" fill="black"/>
<path d="M214.848 131.927L213.208 130.288L211.568 131.927L213.208 133.565L214.848 131.927Z" fill="black"/>
<path d="M226.431 131.927L224.791 130.288L223.151 131.927L224.791 133.565L226.431 131.927Z" fill="black"/>
<path d="M238.014 131.927L236.374 130.288L234.734 131.927L236.374 133.565L238.014 131.927Z" fill="black"/>
<path d="M249.597 131.927L247.957 130.288L246.317 131.927L247.957 133.565L249.597 131.927Z" fill="black"/>
<path d="M261.18 131.927L259.54 130.288L257.9 131.927L259.54 133.565L261.18 131.927Z" fill="black"/>
<path d="M272.764 131.927L271.123 130.288L269.483 131.927L271.123 133.565L272.764 131.927Z" fill="black"/>
<path d="M284.347 131.927L282.706 130.288L281.066 131.927L282.706 133.565L284.347 131.927Z" fill="black"/>
<path d="M295.93 131.927L294.289 130.288L292.649 131.927L294.289 133.565L295.93 131.927Z" fill="black"/>
<path d="M6.35095 143.499L4.71063 141.86L3.07031 143.499L4.71063 145.138L6.35095 143.499Z" fill="black"/>
<path d="M17.9339 143.499L16.2936 141.86L14.6533 143.499L16.2936 145.138L17.9339 143.499Z" fill="black"/>
<path d="M29.5168 143.499L27.8766 141.86L26.2363 143.499L27.8766 145.138L29.5168 143.499Z" fill="black"/>
<path d="M41.0999 143.499L39.4596 141.86L37.8193 143.499L39.4596 145.138L41.0999 143.499Z" fill="black"/>
<path d="M52.683 143.499L51.0426 141.86L49.4023 143.499L51.0426 145.138L52.683 143.499Z" fill="black"/>
<path d="M64.2664 143.499L62.6261 141.86L60.9858 143.499L62.6261 145.138L64.2664 143.499Z" fill="black"/>
<path d="M75.8493 143.499L74.2091 141.86L72.5688 143.499L74.2091 145.138L75.8493 143.499Z" fill="black"/>
<path d="M87.4324 143.499L85.7923 141.86L84.1519 143.499L85.7923 145.138L87.4324 143.499Z" fill="black"/>
<path d="M99.0155 143.499L97.3752 141.86L95.7349 143.499L97.3752 145.138L99.0155 143.499Z" fill="black"/>
<path d="M110.598 143.499L108.958 141.86L107.318 143.499L108.958 145.138L110.598 143.499Z" fill="black"/>
<path d="M122.182 143.499L120.541 141.86L118.901 143.499L120.541 145.138L122.182 143.499Z" fill="black"/>
<path d="M133.765 143.499L132.124 141.86L130.484 143.499L132.124 145.138L133.765 143.499Z" fill="black"/>
<path d="M145.348 143.499L143.707 141.86L142.067 143.499L143.707 145.138L145.348 143.499Z" fill="black"/>
<path d="M156.931 143.499L155.29 141.86L153.65 143.499L155.29 145.138L156.931 143.499Z" fill="black"/>
<path d="M168.516 143.499L166.876 141.86L165.235 143.499L166.876 145.138L168.516 143.499Z" fill="black"/>
<path d="M180.099 143.499L178.459 141.86L176.818 143.499L178.459 145.138L180.099 143.499Z" fill="black"/>
<path d="M191.682 143.499L190.042 141.86L188.402 143.499L190.042 145.138L191.682 143.499Z" fill="black"/>
<path d="M203.265 143.499L201.625 141.86L199.985 143.499L201.625 145.138L203.265 143.499Z" fill="black"/>
<path d="M214.848 143.499L213.208 141.86L211.568 143.499L213.208 145.138L214.848 143.499Z" fill="black"/>
<path d="M226.431 143.499L224.791 141.86L223.151 143.499L224.791 145.138L226.431 143.499Z" fill="black"/>
<path d="M238.014 143.499L236.374 141.86L234.734 143.499L236.374 145.138L238.014 143.499Z" fill="black"/>
<path d="M249.597 143.499L247.957 141.86L246.317 143.499L247.957 145.138L249.597 143.499Z" fill="black"/>
<path d="M261.18 143.499L259.54 141.86L257.9 143.499L259.54 145.138L261.18 143.499Z" fill="black"/>
<path d="M272.764 143.499L271.123 141.86L269.483 143.499L271.123 145.138L272.764 143.499Z" fill="black"/>
<path d="M284.347 143.499L282.706 141.86L281.066 143.499L282.706 145.138L284.347 143.499Z" fill="black"/>
<path d="M295.93 143.499L294.289 141.86L292.649 143.499L294.289 145.138L295.93 143.499Z" fill="black"/>
<path d="M6.35095 155.071L4.71063 153.432L3.07031 155.071L4.71063 156.71L6.35095 155.071Z" fill="black"/>
<path d="M17.9339 155.071L16.2936 153.432L14.6533 155.071L16.2936 156.71L17.9339 155.071Z" fill="black"/>
<path d="M29.5168 155.071L27.8766 153.432L26.2363 155.071L27.8766 156.71L29.5168 155.071Z" fill="black"/>
<path d="M41.0999 155.071L39.4596 153.432L37.8193 155.071L39.4596 156.71L41.0999 155.071Z" fill="black"/>
<path d="M52.683 155.071L51.0426 153.432L49.4023 155.071L51.0426 156.71L52.683 155.071Z" fill="black"/>
<path d="M64.2664 155.071L62.6261 153.432L60.9858 155.071L62.6261 156.71L64.2664 155.071Z" fill="black"/>
<path d="M75.8493 155.071L74.2091 153.432L72.5688 155.071L74.2091 156.71L75.8493 155.071Z" fill="black"/>
<path d="M87.4324 155.071L85.7923 153.432L84.1519 155.071L85.7923 156.71L87.4324 155.071Z" fill="black"/>
<path d="M99.0155 155.071L97.3752 153.432L95.7349 155.071L97.3752 156.71L99.0155 155.071Z" fill="black"/>
<path d="M110.598 155.071L108.958 153.432L107.318 155.071L108.958 156.71L110.598 155.071Z" fill="black"/>
<path d="M122.182 155.071L120.541 153.432L118.901 155.071L120.541 156.71L122.182 155.071Z" fill="black"/>
<path d="M133.765 155.071L132.124 153.432L130.484 155.071L132.124 156.71L133.765 155.071Z" fill="black"/>
<path d="M145.348 155.071L143.707 153.432L142.067 155.071L143.707 156.71L145.348 155.071Z" fill="black"/>
<path d="M156.931 155.071L155.29 153.432L153.65 155.071L155.29 156.71L156.931 155.071Z" fill="black"/>
<path d="M168.516 155.071L166.876 153.432L165.235 155.071L166.876 156.71L168.516 155.071Z" fill="black"/>
<path d="M180.099 155.071L178.459 153.432L176.818 155.071L178.459 156.71L180.099 155.071Z" fill="black"/>
<path d="M191.682 155.071L190.042 153.432L188.402 155.071L190.042 156.71L191.682 155.071Z" fill="black"/>
<path d="M203.265 155.071L201.625 153.432L199.985 155.071L201.625 156.71L203.265 155.071Z" fill="black"/>
<path d="M214.848 155.071L213.208 153.432L211.568 155.071L213.208 156.71L214.848 155.071Z" fill="black"/>
<path d="M226.431 155.071L224.791 153.432L223.151 155.071L224.791 156.71L226.431 155.071Z" fill="black"/>
<path d="M238.014 155.071L236.374 153.432L234.734 155.071L236.374 156.71L238.014 155.071Z" fill="black"/>
<path d="M249.597 155.071L247.957 153.432L246.317 155.071L247.957 156.71L249.597 155.071Z" fill="black"/>
<path d="M261.18 155.071L259.54 153.432L257.9 155.071L259.54 156.71L261.18 155.071Z" fill="black"/>
<path d="M272.764 155.071L271.123 153.432L269.483 155.071L271.123 156.71L272.764 155.071Z" fill="black"/>
<path d="M284.347 155.071L282.706 153.432L281.066 155.071L282.706 156.71L284.347 155.071Z" fill="black"/>
<path d="M295.93 155.071L294.289 153.432L292.649 155.071L294.289 156.71L295.93 155.071Z" fill="black"/>
<path d="M6.35095 166.643L4.71063 165.005L3.07031 166.643L4.71063 168.282L6.35095 166.643Z" fill="black"/>
<path d="M17.9339 166.643L16.2936 165.005L14.6533 166.643L16.2936 168.282L17.9339 166.643Z" fill="black"/>
<path d="M29.5168 166.643L27.8766 165.005L26.2363 166.643L27.8766 168.282L29.5168 166.643Z" fill="black"/>
<path d="M41.0999 166.643L39.4596 165.005L37.8193 166.643L39.4596 168.282L41.0999 166.643Z" fill="black"/>
<path d="M52.683 166.643L51.0426 165.005L49.4023 166.643L51.0426 168.282L52.683 166.643Z" fill="black"/>
<path d="M64.2664 166.643L62.6261 165.005L60.9858 166.643L62.6261 168.282L64.2664 166.643Z" fill="black"/>
<path d="M75.8493 166.643L74.2091 165.005L72.5688 166.643L74.2091 168.282L75.8493 166.643Z" fill="black"/>
<path d="M87.4324 166.643L85.7923 165.005L84.1519 166.643L85.7923 168.282L87.4324 166.643Z" fill="black"/>
<path d="M99.0155 166.643L97.3752 165.005L95.7349 166.643L97.3752 168.282L99.0155 166.643Z" fill="black"/>
<path d="M110.598 166.643L108.958 165.005L107.318 166.643L108.958 168.282L110.598 166.643Z" fill="black"/>
<path d="M122.182 166.643L120.541 165.005L118.901 166.643L120.541 168.282L122.182 166.643Z" fill="black"/>
<path d="M133.765 166.643L132.124 165.005L130.484 166.643L132.124 168.282L133.765 166.643Z" fill="black"/>
<path d="M145.348 166.643L143.707 165.005L142.067 166.643L143.707 168.282L145.348 166.643Z" fill="black"/>
<path d="M156.931 166.643L155.29 165.005L153.65 166.643L155.29 168.282L156.931 166.643Z" fill="black"/>
<path d="M168.516 166.643L166.876 165.005L165.235 166.643L166.876 168.282L168.516 166.643Z" fill="black"/>
<path d="M180.099 166.643L178.459 165.005L176.818 166.643L178.459 168.282L180.099 166.643Z" fill="black"/>
<path d="M191.682 166.643L190.042 165.005L188.402 166.643L190.042 168.282L191.682 166.643Z" fill="black"/>
<path d="M203.265 166.643L201.625 165.005L199.985 166.643L201.625 168.282L203.265 166.643Z" fill="black"/>
<path d="M214.848 166.643L213.208 165.005L211.568 166.643L213.208 168.282L214.848 166.643Z" fill="black"/>
<path d="M226.431 166.643L224.791 165.005L223.151 166.643L224.791 168.282L226.431 166.643Z" fill="black"/>
<path d="M238.014 166.643L236.374 165.005L234.734 166.643L236.374 168.282L238.014 166.643Z" fill="black"/>
<path d="M249.597 166.643L247.957 165.005L246.317 166.643L247.957 168.282L249.597 166.643Z" fill="black"/>
<path d="M261.18 166.643L259.54 165.005L257.9 166.643L259.54 168.282L261.18 166.643Z" fill="black"/>
<path d="M272.764 166.643L271.123 165.005L269.483 166.643L271.123 168.282L272.764 166.643Z" fill="black"/>
<path d="M284.347 166.643L282.706 165.005L281.066 166.643L282.706 168.282L284.347 166.643Z" fill="black"/>
<path d="M295.93 166.643L294.289 165.005L292.649 166.643L294.289 168.282L295.93 166.643Z" fill="black"/>
<path d="M6.35095 178.216L4.71063 176.577L3.07031 178.216L4.71063 179.854L6.35095 178.216Z" fill="black"/>
<path d="M17.9339 178.216L16.2936 176.577L14.6533 178.216L16.2936 179.854L17.9339 178.216Z" fill="black"/>
<path d="M29.5168 178.216L27.8766 176.577L26.2363 178.216L27.8766 179.854L29.5168 178.216Z" fill="black"/>
<path d="M41.0999 178.216L39.4596 176.577L37.8193 178.216L39.4596 179.854L41.0999 178.216Z" fill="black"/>
<path d="M52.683 178.216L51.0426 176.577L49.4023 178.216L51.0426 179.854L52.683 178.216Z" fill="black"/>
<path d="M64.2664 178.216L62.6261 176.577L60.9858 178.216L62.6261 179.854L64.2664 178.216Z" fill="black"/>
<path d="M75.8493 178.216L74.2091 176.577L72.5688 178.216L74.2091 179.854L75.8493 178.216Z" fill="black"/>
<path d="M87.4324 178.216L85.7923 176.577L84.1519 178.216L85.7923 179.854L87.4324 178.216Z" fill="black"/>
<path d="M99.0155 178.216L97.3752 176.577L95.7349 178.216L97.3752 179.854L99.0155 178.216Z" fill="black"/>
<path d="M110.598 178.216L108.958 176.577L107.318 178.216L108.958 179.854L110.598 178.216Z" fill="black"/>
<path d="M122.182 178.216L120.541 176.577L118.901 178.216L120.541 179.854L122.182 178.216Z" fill="black"/>
<path d="M133.765 178.216L132.124 176.577L130.484 178.216L132.124 179.854L133.765 178.216Z" fill="black"/>
<path d="M145.348 178.216L143.707 176.577L142.067 178.216L143.707 179.854L145.348 178.216Z" fill="black"/>
<path d="M156.931 178.216L155.29 176.577L153.65 178.216L155.29 179.854L156.931 178.216Z" fill="black"/>
<path d="M168.516 178.216L166.876 176.577L165.235 178.216L166.876 179.854L168.516 178.216Z" fill="black"/>
<path d="M180.099 178.216L178.459 176.577L176.818 178.216L178.459 179.854L180.099 178.216Z" fill="black"/>
<path d="M191.682 178.216L190.042 176.577L188.402 178.216L190.042 179.854L191.682 178.216Z" fill="black"/>
<path d="M203.265 178.216L201.625 176.577L199.985 178.216L201.625 179.854L203.265 178.216Z" fill="black"/>
<path d="M214.848 178.216L213.208 176.577L211.568 178.216L213.208 179.854L214.848 178.216Z" fill="black"/>
<path d="M226.431 178.216L224.791 176.577L223.151 178.216L224.791 179.854L226.431 178.216Z" fill="black"/>
<path d="M238.014 178.216L236.374 176.577L234.734 178.216L236.374 179.854L238.014 178.216Z" fill="black"/>
<path d="M249.597 178.216L247.957 176.577L246.317 178.216L247.957 179.854L249.597 178.216Z" fill="black"/>
<path d="M261.18 178.216L259.54 176.577L257.9 178.216L259.54 179.854L261.18 178.216Z" fill="black"/>
<path d="M272.764 178.216L271.123 176.577L269.483 178.216L271.123 179.854L272.764 178.216Z" fill="black"/>
<path d="M284.347 178.216L282.706 176.577L281.066 178.216L282.706 179.854L284.347 178.216Z" fill="black"/>
<path d="M295.93 178.216L294.289 176.577L292.649 178.216L294.289 179.854L295.93 178.216Z" fill="black"/>
<path d="M6.35095 189.788L4.71063 188.149L3.07031 189.788L4.71063 191.427L6.35095 189.788Z" fill="black"/>
<path d="M17.9339 189.788L16.2936 188.149L14.6533 189.788L16.2936 191.427L17.9339 189.788Z" fill="black"/>
<path d="M29.5168 189.788L27.8766 188.149L26.2363 189.788L27.8766 191.427L29.5168 189.788Z" fill="black"/>
<path d="M41.0999 189.788L39.4596 188.149L37.8193 189.788L39.4596 191.427L41.0999 189.788Z" fill="black"/>
<path d="M52.683 189.788L51.0426 188.149L49.4023 189.788L51.0426 191.427L52.683 189.788Z" fill="black"/>
<path d="M64.2664 189.788L62.6261 188.149L60.9858 189.788L62.6261 191.427L64.2664 189.788Z" fill="black"/>
<path d="M75.8493 189.788L74.2091 188.149L72.5688 189.788L74.2091 191.427L75.8493 189.788Z" fill="black"/>
<path d="M87.4324 189.788L85.7923 188.149L84.1519 189.788L85.7923 191.427L87.4324 189.788Z" fill="black"/>
<path d="M99.0155 189.788L97.3752 188.149L95.7349 189.788L97.3752 191.427L99.0155 189.788Z" fill="black"/>
<path d="M110.598 189.788L108.958 188.149L107.318 189.788L108.958 191.427L110.598 189.788Z" fill="black"/>
<path d="M122.182 189.788L120.541 188.149L118.901 189.788L120.541 191.427L122.182 189.788Z" fill="black"/>
<path d="M133.765 189.788L132.124 188.149L130.484 189.788L132.124 191.427L133.765 189.788Z" fill="black"/>
<path d="M145.348 189.788L143.707 188.149L142.067 189.788L143.707 191.427L145.348 189.788Z" fill="black"/>
<path d="M156.931 189.788L155.29 188.149L153.65 189.788L155.29 191.427L156.931 189.788Z" fill="black"/>
<path d="M168.516 189.788L166.876 188.149L165.235 189.788L166.876 191.427L168.516 189.788Z" fill="black"/>
<path d="M180.099 189.788L178.459 188.149L176.818 189.788L178.459 191.427L180.099 189.788Z" fill="black"/>
<path d="M191.682 189.788L190.042 188.149L188.402 189.788L190.042 191.427L191.682 189.788Z" fill="black"/>
<path d="M203.265 189.788L201.625 188.149L199.985 189.788L201.625 191.427L203.265 189.788Z" fill="black"/>
<path d="M214.848 189.788L213.208 188.149L211.568 189.788L213.208 191.427L214.848 189.788Z" fill="black"/>
<path d="M226.431 189.788L224.791 188.149L223.151 189.788L224.791 191.427L226.431 189.788Z" fill="black"/>
<path d="M238.014 189.788L236.374 188.149L234.734 189.788L236.374 191.427L238.014 189.788Z" fill="black"/>
<path d="M249.597 189.788L247.957 188.149L246.317 189.788L247.957 191.427L249.597 189.788Z" fill="black"/>
<path d="M261.18 189.788L259.54 188.149L257.9 189.788L259.54 191.427L261.18 189.788Z" fill="black"/>
<path d="M272.764 189.788L271.123 188.149L269.483 189.788L271.123 191.427L272.764 189.788Z" fill="black"/>
<path d="M284.347 189.788L282.706 188.149L281.066 189.788L282.706 191.427L284.347 189.788Z" fill="black"/>
<path d="M295.93 189.788L294.289 188.149L292.649 189.788L294.289 191.427L295.93 189.788Z" fill="black"/>
<path d="M6.35095 201.36L4.71063 199.721L3.07031 201.36L4.71063 202.999L6.35095 201.36Z" fill="black"/>
<path d="M17.9339 201.36L16.2936 199.721L14.6533 201.36L16.2936 202.999L17.9339 201.36Z" fill="black"/>
<path d="M29.5168 201.36L27.8766 199.721L26.2363 201.36L27.8766 202.999L29.5168 201.36Z" fill="black"/>
<path d="M41.0999 201.36L39.4596 199.721L37.8193 201.36L39.4596 202.999L41.0999 201.36Z" fill="black"/>
<path d="M52.683 201.36L51.0426 199.721L49.4023 201.36L51.0426 202.999L52.683 201.36Z" fill="black"/>
<path d="M64.2664 201.36L62.6261 199.721L60.9858 201.36L62.6261 202.999L64.2664 201.36Z" fill="black"/>
<path d="M75.8493 201.36L74.2091 199.721L72.5688 201.36L74.2091 202.999L75.8493 201.36Z" fill="black"/>
<path d="M87.4324 201.36L85.7923 199.721L84.1519 201.36L85.7923 202.999L87.4324 201.36Z" fill="black"/>
<path d="M99.0155 201.36L97.3752 199.721L95.7349 201.36L97.3752 202.999L99.0155 201.36Z" fill="black"/>
<path d="M110.598 201.36L108.958 199.721L107.318 201.36L108.958 202.999L110.598 201.36Z" fill="black"/>
<path d="M122.182 201.36L120.541 199.721L118.901 201.36L120.541 202.999L122.182 201.36Z" fill="black"/>
<path d="M133.765 201.36L132.124 199.721L130.484 201.36L132.124 202.999L133.765 201.36Z" fill="black"/>
<path d="M145.348 201.36L143.707 199.721L142.067 201.36L143.707 202.999L145.348 201.36Z" fill="black"/>
<path d="M156.931 201.36L155.29 199.721L153.65 201.36L155.29 202.999L156.931 201.36Z" fill="black"/>
<path d="M168.516 201.36L166.876 199.721L165.235 201.36L166.876 202.999L168.516 201.36Z" fill="black"/>
<path d="M180.099 201.36L178.459 199.721L176.818 201.36L178.459 202.999L180.099 201.36Z" fill="black"/>
<path d="M191.682 201.36L190.042 199.721L188.402 201.36L190.042 202.999L191.682 201.36Z" fill="black"/>
<path d="M203.265 201.36L201.625 199.721L199.985 201.36L201.625 202.999L203.265 201.36Z" fill="black"/>
<path d="M214.848 201.36L213.208 199.721L211.568 201.36L213.208 202.999L214.848 201.36Z" fill="black"/>
<path d="M226.431 201.36L224.791 199.721L223.151 201.36L224.791 202.999L226.431 201.36Z" fill="black"/>
<path d="M238.014 201.36L236.374 199.721L234.734 201.36L236.374 202.999L238.014 201.36Z" fill="black"/>
<path d="M249.597 201.36L247.957 199.721L246.317 201.36L247.957 202.999L249.597 201.36Z" fill="black"/>
<path d="M261.18 201.36L259.54 199.721L257.9 201.36L259.54 202.999L261.18 201.36Z" fill="black"/>
<path d="M272.764 201.36L271.123 199.721L269.483 201.36L271.123 202.999L272.764 201.36Z" fill="black"/>
<path d="M284.347 201.36L282.706 199.721L281.066 201.36L282.706 202.999L284.347 201.36Z" fill="black"/>
<path d="M295.93 201.36L294.289 199.721L292.649 201.36L294.289 202.999L295.93 201.36Z" fill="black"/>
<path d="M6.35095 212.935L4.71063 211.296L3.07031 212.935L4.71063 214.573L6.35095 212.935Z" fill="black"/>
<path d="M17.9339 212.935L16.2936 211.296L14.6533 212.935L16.2936 214.573L17.9339 212.935Z" fill="black"/>
<path d="M29.5168 212.935L27.8766 211.296L26.2363 212.935L27.8766 214.573L29.5168 212.935Z" fill="black"/>
<path d="M41.0999 212.935L39.4596 211.296L37.8193 212.935L39.4596 214.573L41.0999 212.935Z" fill="black"/>
<path d="M52.683 212.935L51.0426 211.296L49.4023 212.935L51.0426 214.573L52.683 212.935Z" fill="black"/>
<path d="M64.2664 212.935L62.6261 211.296L60.9858 212.935L62.6261 214.573L64.2664 212.935Z" fill="black"/>
<path d="M75.8493 212.935L74.2091 211.296L72.5688 212.935L74.2091 214.573L75.8493 212.935Z" fill="black"/>
<path d="M87.4324 212.935L85.7923 211.296L84.1519 212.935L85.7923 214.573L87.4324 212.935Z" fill="black"/>
<path d="M99.0155 212.935L97.3752 211.296L95.7349 212.935L97.3752 214.573L99.0155 212.935Z" fill="black"/>
<path d="M110.598 212.935L108.958 211.296L107.318 212.935L108.958 214.573L110.598 212.935Z" fill="black"/>
<path d="M122.182 212.935L120.541 211.296L118.901 212.935L120.541 214.573L122.182 212.935Z" fill="black"/>
<path d="M133.765 212.935L132.124 211.296L130.484 212.935L132.124 214.573L133.765 212.935Z" fill="black"/>
<path d="M145.348 212.935L143.707 211.296L142.067 212.935L143.707 214.573L145.348 212.935Z" fill="black"/>
<path d="M156.931 212.935L155.29 211.296L153.65 212.935L155.29 214.573L156.931 212.935Z" fill="black"/>
<path d="M168.516 212.935L166.876 211.296L165.235 212.935L166.876 214.573L168.516 212.935Z" fill="black"/>
<path d="M180.099 212.935L178.459 211.296L176.818 212.935L178.459 214.573L180.099 212.935Z" fill="black"/>
<path d="M191.682 212.935L190.042 211.296L188.402 212.935L190.042 214.573L191.682 212.935Z" fill="black"/>
<path d="M203.265 212.935L201.625 211.296L199.985 212.935L201.625 214.573L203.265 212.935Z" fill="black"/>
<path d="M214.848 212.935L213.208 211.296L211.568 212.935L213.208 214.573L214.848 212.935Z" fill="black"/>
<path d="M226.431 212.935L224.791 211.296L223.151 212.935L224.791 214.573L226.431 212.935Z" fill="black"/>
<path d="M238.014 212.935L236.374 211.296L234.734 212.935L236.374 214.573L238.014 212.935Z" fill="black"/>
<path d="M249.597 212.935L247.957 211.296L246.317 212.935L247.957 214.573L249.597 212.935Z" fill="black"/>
<path d="M261.18 212.935L259.54 211.296L257.9 212.935L259.54 214.573L261.18 212.935Z" fill="black"/>
<path d="M272.764 212.935L271.123 211.296L269.483 212.935L271.123 214.573L272.764 212.935Z" fill="black"/>
<path d="M284.347 212.935L282.706 211.296L281.066 212.935L282.706 214.573L284.347 212.935Z" fill="black"/>
<path d="M295.93 212.935L294.289 211.296L292.649 212.935L294.289 214.573L295.93 212.935Z" fill="black"/>
<path d="M6.35095 224.507L4.71063 222.868L3.07031 224.507L4.71063 226.146L6.35095 224.507Z" fill="black"/>
<path d="M17.9339 224.507L16.2936 222.868L14.6533 224.507L16.2936 226.146L17.9339 224.507Z" fill="black"/>
<path d="M29.5168 224.507L27.8766 222.868L26.2363 224.507L27.8766 226.146L29.5168 224.507Z" fill="black"/>
<path d="M41.0999 224.507L39.4596 222.868L37.8193 224.507L39.4596 226.146L41.0999 224.507Z" fill="black"/>
<path d="M52.683 224.507L51.0426 222.868L49.4023 224.507L51.0426 226.146L52.683 224.507Z" fill="black"/>
<path d="M64.2664 224.507L62.6261 222.868L60.9858 224.507L62.6261 226.146L64.2664 224.507Z" fill="black"/>
<path d="M75.8493 224.507L74.2091 222.868L72.5688 224.507L74.2091 226.146L75.8493 224.507Z" fill="black"/>
<path d="M87.4324 224.507L85.7923 222.868L84.1519 224.507L85.7923 226.146L87.4324 224.507Z" fill="black"/>
<path d="M99.0155 224.507L97.3752 222.868L95.7349 224.507L97.3752 226.146L99.0155 224.507Z" fill="black"/>
<path d="M110.598 224.507L108.958 222.868L107.318 224.507L108.958 226.146L110.598 224.507Z" fill="black"/>
<path d="M122.182 224.507L120.541 222.868L118.901 224.507L120.541 226.146L122.182 224.507Z" fill="black"/>
<path d="M133.765 224.507L132.124 222.868L130.484 224.507L132.124 226.146L133.765 224.507Z" fill="black"/>
<path d="M145.348 224.507L143.707 222.868L142.067 224.507L143.707 226.146L145.348 224.507Z" fill="black"/>
<path d="M156.931 224.507L155.29 222.868L153.65 224.507L155.29 226.146L156.931 224.507Z" fill="black"/>
<path d="M168.516 224.507L166.876 222.868L165.235 224.507L166.876 226.146L168.516 224.507Z" fill="black"/>
<path d="M180.099 224.507L178.459 222.868L176.818 224.507L178.459 226.146L180.099 224.507Z" fill="black"/>
<path d="M191.682 224.507L190.042 222.868L188.402 224.507L190.042 226.146L191.682 224.507Z" fill="black"/>
<path d="M203.265 224.507L201.625 222.868L199.985 224.507L201.625 226.146L203.265 224.507Z" fill="black"/>
<path d="M214.848 224.507L213.208 222.868L211.568 224.507L213.208 226.146L214.848 224.507Z" fill="black"/>
<path d="M226.431 224.507L224.791 222.868L223.151 224.507L224.791 226.146L226.431 224.507Z" fill="black"/>
<path d="M238.014 224.507L236.374 222.868L234.734 224.507L236.374 226.146L238.014 224.507Z" fill="black"/>
<path d="M249.597 224.507L247.957 222.868L246.317 224.507L247.957 226.146L249.597 224.507Z" fill="black"/>
<path d="M261.18 224.507L259.54 222.868L257.9 224.507L259.54 226.146L261.18 224.507Z" fill="black"/>
<path d="M272.764 224.507L271.123 222.868L269.483 224.507L271.123 226.146L272.764 224.507Z" fill="black"/>
<path d="M284.347 224.507L282.706 222.868L281.066 224.507L282.706 226.146L284.347 224.507Z" fill="black"/>
<path d="M295.93 224.507L294.289 222.868L292.649 224.507L294.289 226.146L295.93 224.507Z" fill="black"/>
<path d="M6.35095 236.079L4.71063 234.44L3.07031 236.079L4.71063 237.718L6.35095 236.079Z" fill="black"/>
<path d="M17.9339 236.079L16.2936 234.44L14.6533 236.079L16.2936 237.718L17.9339 236.079Z" fill="black"/>
<path d="M29.5168 236.079L27.8766 234.44L26.2363 236.079L27.8766 237.718L29.5168 236.079Z" fill="black"/>
<path d="M41.0999 236.079L39.4596 234.44L37.8193 236.079L39.4596 237.718L41.0999 236.079Z" fill="black"/>
<path d="M52.683 236.079L51.0426 234.44L49.4023 236.079L51.0426 237.718L52.683 236.079Z" fill="black"/>
<path d="M64.2664 236.079L62.6261 234.44L60.9858 236.079L62.6261 237.718L64.2664 236.079Z" fill="black"/>
<path d="M75.8493 236.079L74.2091 234.44L72.5688 236.079L74.2091 237.718L75.8493 236.079Z" fill="black"/>
<path d="M87.4324 236.079L85.7923 234.44L84.1519 236.079L85.7923 237.718L87.4324 236.079Z" fill="black"/>
<path d="M99.0155 236.079L97.3752 234.44L95.7349 236.079L97.3752 237.718L99.0155 236.079Z" fill="black"/>
<path d="M110.598 236.079L108.958 234.44L107.318 236.079L108.958 237.718L110.598 236.079Z" fill="black"/>
<path d="M122.182 236.079L120.541 234.44L118.901 236.079L120.541 237.718L122.182 236.079Z" fill="black"/>
<path d="M133.765 236.079L132.124 234.44L130.484 236.079L132.124 237.718L133.765 236.079Z" fill="black"/>
<path d="M145.348 236.079L143.707 234.44L142.067 236.079L143.707 237.718L145.348 236.079Z" fill="black"/>
<path d="M156.931 236.079L155.29 234.44L153.65 236.079L155.29 237.718L156.931 236.079Z" fill="black"/>
<path d="M168.516 236.079L166.876 234.44L165.235 236.079L166.876 237.718L168.516 236.079Z" fill="black"/>
<path d="M180.099 236.079L178.459 234.44L176.818 236.079L178.459 237.718L180.099 236.079Z" fill="black"/>
<path d="M191.682 236.079L190.042 234.44L188.402 236.079L190.042 237.718L191.682 236.079Z" fill="black"/>
<path d="M203.265 236.079L201.625 234.44L199.985 236.079L201.625 237.718L203.265 236.079Z" fill="black"/>
<path d="M214.848 236.079L213.208 234.44L211.568 236.079L213.208 237.718L214.848 236.079Z" fill="black"/>
<path d="M226.431 236.079L224.791 234.44L223.151 236.079L224.791 237.718L226.431 236.079Z" fill="black"/>
<path d="M238.014 236.079L236.374 234.44L234.734 236.079L236.374 237.718L238.014 236.079Z" fill="black"/>
<path d="M249.597 236.079L247.957 234.44L246.317 236.079L247.957 237.718L249.597 236.079Z" fill="black"/>
<path d="M261.18 236.079L259.54 234.44L257.9 236.079L259.54 237.718L261.18 236.079Z" fill="black"/>
<path d="M272.764 236.079L271.123 234.44L269.483 236.079L271.123 237.718L272.764 236.079Z" fill="black"/>
<path d="M284.347 236.079L282.706 234.44L281.066 236.079L282.706 237.718L284.347 236.079Z" fill="black"/>
<path d="M295.93 236.079L294.289 234.44L292.649 236.079L294.289 237.718L295.93 236.079Z" fill="black"/>
<path d="M6.35095 247.651L4.71063 246.013L3.07031 247.651L4.71063 249.29L6.35095 247.651Z" fill="black"/>
<path d="M17.9339 247.651L16.2936 246.013L14.6533 247.651L16.2936 249.29L17.9339 247.651Z" fill="black"/>
<path d="M29.5168 247.651L27.8766 246.013L26.2363 247.651L27.8766 249.29L29.5168 247.651Z" fill="black"/>
<path d="M41.0999 247.651L39.4596 246.013L37.8193 247.651L39.4596 249.29L41.0999 247.651Z" fill="black"/>
<path d="M52.683 247.651L51.0426 246.013L49.4023 247.651L51.0426 249.29L52.683 247.651Z" fill="black"/>
<path d="M64.2664 247.651L62.6261 246.013L60.9858 247.651L62.6261 249.29L64.2664 247.651Z" fill="black"/>
<path d="M75.8493 247.651L74.2091 246.013L72.5688 247.651L74.2091 249.29L75.8493 247.651Z" fill="black"/>
<path d="M87.4324 247.651L85.7923 246.013L84.1519 247.651L85.7923 249.29L87.4324 247.651Z" fill="black"/>
<path d="M99.0155 247.651L97.3752 246.013L95.7349 247.651L97.3752 249.29L99.0155 247.651Z" fill="black"/>
<path d="M110.598 247.651L108.958 246.013L107.318 247.651L108.958 249.29L110.598 247.651Z" fill="black"/>
<path d="M122.182 247.651L120.541 246.013L118.901 247.651L120.541 249.29L122.182 247.651Z" fill="black"/>
<path d="M133.765 247.651L132.124 246.013L130.484 247.651L132.124 249.29L133.765 247.651Z" fill="black"/>
<path d="M145.348 247.651L143.707 246.013L142.067 247.651L143.707 249.29L145.348 247.651Z" fill="black"/>
<path d="M156.931 247.651L155.29 246.013L153.65 247.651L155.29 249.29L156.931 247.651Z" fill="black"/>
<path d="M168.516 247.651L166.876 246.013L165.235 247.651L166.876 249.29L168.516 247.651Z" fill="black"/>
<path d="M180.099 247.651L178.459 246.013L176.818 247.651L178.459 249.29L180.099 247.651Z" fill="black"/>
<path d="M191.682 247.651L190.042 246.013L188.402 247.651L190.042 249.29L191.682 247.651Z" fill="black"/>
<path d="M203.265 247.651L201.625 246.013L199.985 247.651L201.625 249.29L203.265 247.651Z" fill="black"/>
<path d="M214.848 247.651L213.208 246.013L211.568 247.651L213.208 249.29L214.848 247.651Z" fill="black"/>
<path d="M226.431 247.651L224.791 246.013L223.151 247.651L224.791 249.29L226.431 247.651Z" fill="black"/>
<path d="M238.014 247.651L236.374 246.013L234.734 247.651L236.374 249.29L238.014 247.651Z" fill="black"/>
<path d="M249.597 247.651L247.957 246.013L246.317 247.651L247.957 249.29L249.597 247.651Z" fill="black"/>
<path d="M261.18 247.651L259.54 246.013L257.9 247.651L259.54 249.29L261.18 247.651Z" fill="black"/>
<path d="M272.764 247.651L271.123 246.013L269.483 247.651L271.123 249.29L272.764 247.651Z" fill="black"/>
<path d="M284.347 247.651L282.706 246.013L281.066 247.651L282.706 249.29L284.347 247.651Z" fill="black"/>
<path d="M295.93 247.651L294.289 246.013L292.649 247.651L294.289 249.29L295.93 247.651Z" fill="black"/>
<path d="M6.35095 259.224L4.71063 257.585L3.07031 259.224L4.71063 260.863L6.35095 259.224Z" fill="black"/>
<path d="M17.9339 259.224L16.2936 257.585L14.6533 259.224L16.2936 260.863L17.9339 259.224Z" fill="black"/>
<path d="M29.5168 259.224L27.8766 257.585L26.2363 259.224L27.8766 260.863L29.5168 259.224Z" fill="black"/>
<path d="M41.0999 259.224L39.4596 257.585L37.8193 259.224L39.4596 260.863L41.0999 259.224Z" fill="black"/>
<path d="M52.683 259.224L51.0426 257.585L49.4023 259.224L51.0426 260.863L52.683 259.224Z" fill="black"/>
<path d="M64.2664 259.224L62.6261 257.585L60.9858 259.224L62.6261 260.863L64.2664 259.224Z" fill="black"/>
<path d="M75.8493 259.224L74.2091 257.585L72.5688 259.224L74.2091 260.863L75.8493 259.224Z" fill="black"/>
<path d="M87.4324 259.224L85.7923 257.585L84.1519 259.224L85.7923 260.863L87.4324 259.224Z" fill="black"/>
<path d="M99.0155 259.224L97.3752 257.585L95.7349 259.224L97.3752 260.863L99.0155 259.224Z" fill="black"/>
<path d="M110.598 259.224L108.958 257.585L107.318 259.224L108.958 260.863L110.598 259.224Z" fill="black"/>
<path d="M122.182 259.224L120.541 257.585L118.901 259.224L120.541 260.863L122.182 259.224Z" fill="black"/>
<path d="M133.765 259.224L132.124 257.585L130.484 259.224L132.124 260.863L133.765 259.224Z" fill="black"/>
<path d="M145.348 259.224L143.707 257.585L142.067 259.224L143.707 260.863L145.348 259.224Z" fill="black"/>
<path d="M156.931 259.224L155.29 257.585L153.65 259.224L155.29 260.863L156.931 259.224Z" fill="black"/>
<path d="M168.516 259.224L166.876 257.585L165.235 259.224L166.876 260.863L168.516 259.224Z" fill="black"/>
<path d="M180.099 259.224L178.459 257.585L176.818 259.224L178.459 260.863L180.099 259.224Z" fill="black"/>
<path d="M191.682 259.224L190.042 257.585L188.402 259.224L190.042 260.863L191.682 259.224Z" fill="black"/>
<path d="M203.265 259.224L201.625 257.585L199.985 259.224L201.625 260.863L203.265 259.224Z" fill="black"/>
<path d="M214.848 259.224L213.208 257.585L211.568 259.224L213.208 260.863L214.848 259.224Z" fill="black"/>
<path d="M226.431 259.224L224.791 257.585L223.151 259.224L224.791 260.863L226.431 259.224Z" fill="black"/>
<path d="M238.014 259.224L236.374 257.585L234.734 259.224L236.374 260.863L238.014 259.224Z" fill="black"/>
<path d="M249.597 259.224L247.957 257.585L246.317 259.224L247.957 260.863L249.597 259.224Z" fill="black"/>
<path d="M261.18 259.224L259.54 257.585L257.9 259.224L259.54 260.863L261.18 259.224Z" fill="black"/>
<path d="M272.764 259.224L271.123 257.585L269.483 259.224L271.123 260.863L272.764 259.224Z" fill="black"/>
<path d="M284.347 259.224L282.706 257.585L281.066 259.224L282.706 260.863L284.347 259.224Z" fill="black"/>
<path d="M295.93 259.224L294.289 257.585L292.649 259.224L294.289 260.863L295.93 259.224Z" fill="black"/>
<path d="M6.35095 270.796L4.71063 269.157L3.07031 270.796L4.71063 272.435L6.35095 270.796Z" fill="black"/>
<path d="M17.9339 270.796L16.2936 269.157L14.6533 270.796L16.2936 272.435L17.9339 270.796Z" fill="black"/>
<path d="M29.5168 270.796L27.8766 269.157L26.2363 270.796L27.8766 272.435L29.5168 270.796Z" fill="black"/>
<path d="M41.0999 270.796L39.4596 269.157L37.8193 270.796L39.4596 272.435L41.0999 270.796Z" fill="black"/>
<path d="M52.683 270.796L51.0426 269.157L49.4023 270.796L51.0426 272.435L52.683 270.796Z" fill="black"/>
<path d="M64.2664 270.796L62.6261 269.157L60.9858 270.796L62.6261 272.435L64.2664 270.796Z" fill="black"/>
<path d="M75.8493 270.796L74.2091 269.157L72.5688 270.796L74.2091 272.435L75.8493 270.796Z" fill="black"/>
<path d="M87.4324 270.796L85.7923 269.157L84.1519 270.796L85.7923 272.435L87.4324 270.796Z" fill="black"/>
<path d="M99.0155 270.796L97.3752 269.157L95.7349 270.796L97.3752 272.435L99.0155 270.796Z" fill="black"/>
<path d="M110.598 270.796L108.958 269.157L107.318 270.796L108.958 272.435L110.598 270.796Z" fill="black"/>
<path d="M122.182 270.796L120.541 269.157L118.901 270.796L120.541 272.435L122.182 270.796Z" fill="black"/>
<path d="M133.765 270.796L132.124 269.157L130.484 270.796L132.124 272.435L133.765 270.796Z" fill="black"/>
<path d="M145.348 270.796L143.707 269.157L142.067 270.796L143.707 272.435L145.348 270.796Z" fill="black"/>
<path d="M156.931 270.796L155.29 269.157L153.65 270.796L155.29 272.435L156.931 270.796Z" fill="black"/>
<path d="M168.516 270.796L166.876 269.157L165.235 270.796L166.876 272.435L168.516 270.796Z" fill="black"/>
<path d="M180.099 270.796L178.459 269.157L176.818 270.796L178.459 272.435L180.099 270.796Z" fill="black"/>
<path d="M191.682 270.796L190.042 269.157L188.402 270.796L190.042 272.435L191.682 270.796Z" fill="black"/>
<path d="M203.265 270.796L201.625 269.157L199.985 270.796L201.625 272.435L203.265 270.796Z" fill="black"/>
<path d="M214.848 270.796L213.208 269.157L211.568 270.796L213.208 272.435L214.848 270.796Z" fill="black"/>
<path d="M226.431 270.796L224.791 269.157L223.151 270.796L224.791 272.435L226.431 270.796Z" fill="black"/>
<path d="M238.014 270.796L236.374 269.157L234.734 270.796L236.374 272.435L238.014 270.796Z" fill="black"/>
<path d="M249.597 270.796L247.957 269.157L246.317 270.796L247.957 272.435L249.597 270.796Z" fill="black"/>
<path d="M261.18 270.796L259.54 269.157L257.9 270.796L259.54 272.435L261.18 270.796Z" fill="black"/>
<path d="M272.764 270.796L271.123 269.157L269.483 270.796L271.123 272.435L272.764 270.796Z" fill="black"/>
<path d="M284.347 270.796L282.706 269.157L281.066 270.796L282.706 272.435L284.347 270.796Z" fill="black"/>
<path d="M295.93 270.796L294.289 269.157L292.649 270.796L294.289 272.435L295.93 270.796Z" fill="black"/>
<path d="M6.35095 282.368L4.71063 280.729L3.07031 282.368L4.71063 284.007L6.35095 282.368Z" fill="black"/>
<path d="M17.9339 282.368L16.2936 280.729L14.6533 282.368L16.2936 284.007L17.9339 282.368Z" fill="black"/>
<path d="M29.5168 282.368L27.8766 280.729L26.2363 282.368L27.8766 284.007L29.5168 282.368Z" fill="black"/>
<path d="M41.0999 282.368L39.4596 280.729L37.8193 282.368L39.4596 284.007L41.0999 282.368Z" fill="black"/>
<path d="M52.683 282.368L51.0426 280.729L49.4023 282.368L51.0426 284.007L52.683 282.368Z" fill="black"/>
<path d="M64.2664 282.368L62.6261 280.729L60.9858 282.368L62.6261 284.007L64.2664 282.368Z" fill="black"/>
<path d="M75.8493 282.368L74.2091 280.729L72.5688 282.368L74.2091 284.007L75.8493 282.368Z" fill="black"/>
<path d="M87.4324 282.368L85.7923 280.729L84.1519 282.368L85.7923 284.007L87.4324 282.368Z" fill="black"/>
<path d="M99.0155 282.368L97.3752 280.729L95.7349 282.368L97.3752 284.007L99.0155 282.368Z" fill="black"/>
<path d="M110.598 282.368L108.958 280.729L107.318 282.368L108.958 284.007L110.598 282.368Z" fill="black"/>
<path d="M122.182 282.368L120.541 280.729L118.901 282.368L120.541 284.007L122.182 282.368Z" fill="black"/>
<path d="M133.765 282.368L132.124 280.729L130.484 282.368L132.124 284.007L133.765 282.368Z" fill="black"/>
<path d="M145.348 282.368L143.707 280.729L142.067 282.368L143.707 284.007L145.348 282.368Z" fill="black"/>
<path d="M156.931 282.368L155.29 280.729L153.65 282.368L155.29 284.007L156.931 282.368Z" fill="black"/>
<path d="M168.516 282.368L166.876 280.729L165.235 282.368L166.876 284.007L168.516 282.368Z" fill="black"/>
<path d="M180.099 282.368L178.459 280.729L176.818 282.368L178.459 284.007L180.099 282.368Z" fill="black"/>
<path d="M191.682 282.368L190.042 280.729L188.402 282.368L190.042 284.007L191.682 282.368Z" fill="black"/>
<path d="M203.265 282.368L201.625 280.729L199.985 282.368L201.625 284.007L203.265 282.368Z" fill="black"/>
<path d="M214.848 282.368L213.208 280.729L211.568 282.368L213.208 284.007L214.848 282.368Z" fill="black"/>
<path d="M226.431 282.368L224.791 280.729L223.151 282.368L224.791 284.007L226.431 282.368Z" fill="black"/>
<path d="M238.014 282.368L236.374 280.729L234.734 282.368L236.374 284.007L238.014 282.368Z" fill="black"/>
<path d="M249.597 282.368L247.957 280.729L246.317 282.368L247.957 284.007L249.597 282.368Z" fill="black"/>
<path d="M261.18 282.368L259.54 280.729L257.9 282.368L259.54 284.007L261.18 282.368Z" fill="black"/>
<path d="M272.764 282.368L271.123 280.729L269.483 282.368L271.123 284.007L272.764 282.368Z" fill="black"/>
<path d="M284.347 282.368L282.706 280.729L281.066 282.368L282.706 284.007L284.347 282.368Z" fill="black"/>
<path d="M295.93 282.368L294.289 280.729L292.649 282.368L294.289 284.007L295.93 282.368Z" fill="black"/>
<path d="M6.35095 293.94L4.71063 292.302L3.07031 293.94L4.71063 295.579L6.35095 293.94Z" fill="black"/>
<path d="M17.9339 293.94L16.2936 292.302L14.6533 293.94L16.2936 295.579L17.9339 293.94Z" fill="black"/>
<path d="M29.5168 293.94L27.8766 292.302L26.2363 293.94L27.8766 295.579L29.5168 293.94Z" fill="black"/>
<path d="M41.0999 293.94L39.4596 292.302L37.8193 293.94L39.4596 295.579L41.0999 293.94Z" fill="black"/>
<path d="M52.683 293.94L51.0426 292.302L49.4023 293.94L51.0426 295.579L52.683 293.94Z" fill="black"/>
<path d="M64.2664 293.94L62.6261 292.302L60.9858 293.94L62.6261 295.579L64.2664 293.94Z" fill="black"/>
<path d="M75.8493 293.94L74.2091 292.302L72.5688 293.94L74.2091 295.579L75.8493 293.94Z" fill="black"/>
<path d="M87.4324 293.94L85.7923 292.302L84.1519 293.94L85.7923 295.579L87.4324 293.94Z" fill="black"/>
<path d="M99.0155 293.94L97.3752 292.302L95.7349 293.94L97.3752 295.579L99.0155 293.94Z" fill="black"/>
<path d="M110.598 293.94L108.958 292.302L107.318 293.94L108.958 295.579L110.598 293.94Z" fill="black"/>
<path d="M122.182 293.94L120.541 292.302L118.901 293.94L120.541 295.579L122.182 293.94Z" fill="black"/>
<path d="M133.765 293.94L132.124 292.302L130.484 293.94L132.124 295.579L133.765 293.94Z" fill="black"/>
<path d="M145.348 293.94L143.707 292.302L142.067 293.94L143.707 295.579L145.348 293.94Z" fill="black"/>
<path d="M156.931 293.94L155.29 292.302L153.65 293.94L155.29 295.579L156.931 293.94Z" fill="black"/>
<path d="M168.516 293.94L166.876 292.302L165.235 293.94L166.876 295.579L168.516 293.94Z" fill="black"/>
<path d="M180.099 293.94L178.459 292.302L176.818 293.94L178.459 295.579L180.099 293.94Z" fill="black"/>
<path d="M191.682 293.94L190.042 292.302L188.402 293.94L190.042 295.579L191.682 293.94Z" fill="black"/>
<path d="M203.265 293.94L201.625 292.302L199.985 293.94L201.625 295.579L203.265 293.94Z" fill="black"/>
<path d="M214.848 293.94L213.208 292.302L211.568 293.94L213.208 295.579L214.848 293.94Z" fill="black"/>
<path d="M226.431 293.94L224.791 292.302L223.151 293.94L224.791 295.579L226.431 293.94Z" fill="black"/>
<path d="M238.014 293.94L236.374 292.302L234.734 293.94L236.374 295.579L238.014 293.94Z" fill="black"/>
<path d="M249.597 293.94L247.957 292.302L246.317 293.94L247.957 295.579L249.597 293.94Z" fill="black"/>
<path d="M261.18 293.94L259.54 292.302L257.9 293.94L259.54 295.579L261.18 293.94Z" fill="black"/>
<path d="M272.764 293.94L271.123 292.302L269.483 293.94L271.123 295.579L272.764 293.94Z" fill="black"/>
<path d="M284.347 293.94L282.706 292.302L281.066 293.94L282.706 295.579L284.347 293.94Z" fill="black"/>
<path d="M295.93 293.94L294.289 292.302L292.649 293.94L294.289 295.579L295.93 293.94Z" fill="black"/>
</svg>
