<svg width="56" height="57" viewBox="0 0 56 57" fill="none" xmlns="http://www.w3.org/2000/svg">
<rect x="0.5" y="0.927734" width="55" height="55" rx="11.5" stroke="#110343" stroke-opacity="0.06"/>
<g clip-path="url(#clip0_84_1096)">
<path d="M39.3747 24.9275C39.376 26.2372 39.0506 27.5265 38.4281 28.6788C37.8055 29.831 36.9054 30.8098 35.8093 31.5265C34.7131 32.2433 33.4555 32.6753 32.1503 32.7835C30.8451 32.8917 29.5336 32.6727 28.3343 32.1463L22.6403 38.7328C22.6272 38.7481 22.6118 38.7645 22.5976 38.7788C21.9412 39.4352 21.0508 39.804 20.1225 39.804C19.1941 39.804 18.3038 39.4352 17.6473 38.7788C16.9909 38.1223 16.6221 37.232 16.6221 36.3036C16.6221 35.3752 16.9909 34.4849 17.6473 33.8285C17.6626 33.8142 17.6779 33.7989 17.6943 33.7858L24.2809 28.0928C23.6908 26.7429 23.4908 25.2547 23.7036 23.7969C23.9164 22.3391 24.5334 20.9701 25.4848 19.8452C26.4361 18.7203 27.6837 17.8845 29.0859 17.4326C30.4882 16.9808 31.989 16.9309 33.4181 17.2888C33.5654 17.3257 33.7006 17.4003 33.8103 17.5053C33.9201 17.6103 34.0006 17.7421 34.0439 17.8877C34.0873 18.0332 34.092 18.1876 34.0577 18.3355C34.0233 18.4834 33.951 18.6199 33.8479 18.7314L29.7497 23.1775L30.3687 26.0595L33.2497 26.6775L37.6958 22.5738C37.8073 22.4707 37.9437 22.3984 38.0917 22.364C38.2396 22.3297 38.394 22.3344 38.5395 22.3778C38.6851 22.4211 38.8168 22.5016 38.9218 22.6114C39.0268 22.7211 39.1015 22.8563 39.1384 23.0036C39.2954 23.6329 39.3748 24.279 39.3747 24.9275Z" fill="#13274D"/>
</g>
<defs>
<clipPath id="clip0_84_1096">
<rect width="28" height="28" fill="white" transform="translate(14 14.4277)"/>
</clipPath>
</defs>
</svg>
