<svg width="56" height="57" viewBox="0 0 56 57" fill="none" xmlns="http://www.w3.org/2000/svg">
<rect x="0.5" y="0.927734" width="55" height="55" rx="11.5" stroke="#110343" stroke-opacity="0.06"/>
<g clip-path="url(#clip0_84_1080)">
<path d="M41.0495 28.0734C41.0112 27.987 40.0848 25.9318 38.0253 23.8723C35.2811 21.128 31.815 19.6777 28 19.6777C24.185 19.6777 20.7189 21.128 17.9747 23.8723C15.9151 25.9318 14.9844 27.9902 14.9505 28.0734C14.9007 28.1853 14.875 28.3064 14.875 28.4288C14.875 28.5513 14.9007 28.6724 14.9505 28.7843C14.9887 28.8707 15.9151 30.9248 17.9747 32.9843C20.7189 35.7274 24.185 37.1777 28 37.1777C31.815 37.1777 35.2811 35.7274 38.0253 32.9843C40.0848 30.9248 41.0112 28.8707 41.0495 28.7843C41.0993 28.6724 41.125 28.5513 41.125 28.4288C41.125 28.3064 41.0993 28.1853 41.0495 28.0734ZM28 32.8027C27.1347 32.8027 26.2888 32.5461 25.5694 32.0654C24.8499 31.5847 24.2891 30.9014 23.958 30.102C23.6269 29.3025 23.5402 28.4229 23.7091 27.5742C23.8779 26.7255 24.2945 25.946 24.9064 25.3341C25.5183 24.7223 26.2978 24.3056 27.1465 24.1368C27.9951 23.968 28.8748 24.0546 29.6742 24.3858C30.4737 24.7169 31.1569 25.2776 31.6377 25.9971C32.1184 26.7166 32.375 27.5624 32.375 28.4277C32.375 29.5881 31.9141 30.7009 31.0936 31.5213C30.2731 32.3418 29.1603 32.8027 28 32.8027Z" fill="#13274D"/>
</g>
<defs>
<clipPath id="clip0_84_1080">
<rect width="28" height="28" fill="white" transform="translate(14 14.4277)"/>
</clipPath>
</defs>
</svg>
