<svg width="56" height="57" viewBox="0 0 56 57" fill="none" xmlns="http://www.w3.org/2000/svg">
<rect x="0.5" y="0.927734" width="55" height="55" rx="11.5" stroke="#110343" stroke-opacity="0.06"/>
<g clip-path="url(#clip0_84_1088)">
<path d="M16.707 27.065C16.9654 24.8983 17.8516 22.8545 19.2565 21.185C19.412 20.9975 19.6048 20.8446 19.8228 20.7359C20.0407 20.6273 20.2789 20.5653 20.5222 20.554C20.7655 20.5426 21.0084 20.5822 21.2355 20.6702C21.4626 20.7581 21.6689 20.8925 21.8411 21.0647L24.8675 24.1556C25.1589 24.4464 25.3375 24.8313 25.3714 25.2416C25.4052 25.652 25.2922 26.061 25.0523 26.3956C24.8706 26.6533 24.7338 26.9399 24.6476 27.2433C24.6202 27.3328 24.5649 27.4111 24.4897 27.4668C24.4145 27.5225 24.3234 27.5527 24.2298 27.5528H17.1423C17.0805 27.5529 17.0195 27.5399 16.9631 27.5147C16.9067 27.4895 16.8563 27.4527 16.8152 27.4066C16.774 27.3605 16.7431 27.3062 16.7245 27.2474C16.7059 27.1885 16.6999 27.1263 16.707 27.065ZM29.027 17.0594C28.7853 17.0383 28.5418 17.0677 28.3121 17.1457C28.0823 17.2238 27.8713 17.3487 27.6925 17.5127C27.5136 17.6766 27.3708 17.876 27.2731 18.0981C27.1754 18.3202 27.1249 18.5602 27.125 18.8028V23.2511C27.1219 23.6638 27.2662 24.0641 27.5318 24.3801C27.7974 24.696 28.167 24.9069 28.5742 24.9748C29.3408 25.1013 30.0436 25.4793 30.5717 26.0492C31.0999 26.6192 31.4233 27.3487 31.4911 28.1227C31.5589 28.8968 31.3672 29.6714 30.9462 30.3245C30.5252 30.9776 29.8989 31.472 29.1659 31.7298C29.0806 31.7612 29.0069 31.8179 28.9549 31.8924C28.9029 31.967 28.875 32.0557 28.875 32.1465V39.2811C28.8745 39.343 28.8873 39.4043 28.9124 39.461C28.9374 39.5176 28.9742 39.5683 29.0203 39.6097C29.0665 39.651 29.1208 39.6821 29.1799 39.7009C29.2389 39.7197 29.3012 39.7257 29.3628 39.7186C32.0926 39.3816 34.6089 38.0699 36.4485 36.0251C38.2882 33.9803 39.3274 31.3398 39.375 28.5897C39.457 22.6517 34.9114 17.5865 29.027 17.0594ZM26.8242 31.7265C26.3351 31.5521 25.8909 31.271 25.5239 30.9036C25.1569 30.5362 24.8763 30.0918 24.7023 29.6025C24.6725 29.5157 24.6165 29.4403 24.5421 29.3866C24.4676 29.333 24.3784 29.3037 24.2867 29.3028H17.1412C17.0794 29.3024 17.0181 29.3151 16.9616 29.3401C16.905 29.3651 16.8544 29.4018 16.8131 29.4478C16.7717 29.4938 16.7406 29.548 16.7217 29.6069C16.7029 29.6658 16.6967 29.7281 16.7037 29.7895C17.0101 32.3176 18.1551 34.6701 19.9559 36.4708C21.7566 38.2715 24.109 39.4166 26.6371 39.7229C26.6986 39.7299 26.7608 39.7238 26.8197 39.7049C26.8786 39.6861 26.9328 39.6549 26.9788 39.6136C27.0248 39.5723 27.0615 39.5216 27.0865 39.4651C27.1115 39.4085 27.1243 39.3473 27.1239 39.2854V32.1465C27.124 32.054 27.0952 31.9637 27.0415 31.8884C26.9877 31.8131 26.9117 31.7565 26.8242 31.7265Z" fill="#13274D"/>
</g>
<defs>
<clipPath id="clip0_84_1088">
<rect width="28" height="28" fill="white" transform="translate(14 14.4277)"/>
</clipPath>
</defs>
</svg>
