<svg width="56" height="57" viewBox="0 0 56 57" fill="none" xmlns="http://www.w3.org/2000/svg">
<rect x="0.5" y="0.927734" width="55" height="55" rx="11.5" stroke="#110343" stroke-opacity="0.06"/>
<g clip-path="url(#clip0_84_1104)">
<path d="M38.2441 27.8084L29.4941 19.0584C29.3717 18.9359 29.2157 18.8524 29.0459 18.8186C28.8761 18.7848 28.7 18.8021 28.5401 18.8684C28.3801 18.9347 28.2434 19.0469 28.1472 19.191C28.0511 19.335 27.9999 19.5043 28 19.6774V26.3154L20.7441 19.0584C20.6217 18.9359 20.4657 18.8524 20.2959 18.8186C20.1261 18.7848 19.95 18.8021 19.7901 18.8684C19.6301 18.9347 19.4934 19.0469 19.3972 19.191C19.3011 19.335 19.2499 19.5043 19.25 19.6774V37.1774C19.2499 37.3506 19.3011 37.5199 19.3972 37.6639C19.4934 37.808 19.6301 37.9202 19.7901 37.9865C19.95 38.0528 20.1261 38.0701 20.2959 38.0363C20.4657 38.0025 20.6217 37.919 20.7441 37.7965L28 30.5395V37.1774C27.9999 37.3506 28.0511 37.5199 28.1472 37.6639C28.2434 37.808 28.3801 37.9202 28.5401 37.9865C28.7 38.0528 28.8761 38.0701 29.0459 38.0363C29.2157 38.0025 29.3717 37.919 29.4941 37.7965L38.2441 29.0465C38.3254 28.9652 38.39 28.8687 38.434 28.7625C38.478 28.6563 38.5007 28.5424 38.5007 28.4274C38.5007 28.3125 38.478 28.1986 38.434 28.0924C38.39 27.9862 38.3254 27.8896 38.2441 27.8084Z" fill="#13274D"/>
</g>
<defs>
<clipPath id="clip0_84_1104">
<rect width="28" height="28" fill="white" transform="translate(14 14.4277)"/>
</clipPath>
</defs>
</svg>
